<svg xmlns="http://www.w3.org/2000/svg" viewBox="0 0 500 300"><defs><clipPath id="a"><path d="M435.83 163.29h62.36v39.69h-62.36z"/></clipPath></defs><path d="M0 300h500V0H0z"/><path fill="#d00" d="M0 198.85h500V97.7H0z"/><path fill="#ffce00" d="M0 300h500V198.86H0z"/><g clip-path="url(#a)" transform="matrix(7.5664 0 0 -7.5664 -3279.65 1517.72)"><path fill-rule="evenodd" d="M475.79 192.83h.6v-14.22l-.02-.76-.03-.26a11 11 0 0 0-.26-1.48l-.02-.06v-.03l-.08-.27-.1-.28a9.9 9.9 0 0 0-9.39-6.78h-.61v.01l-.22.02a9 9 0 0 0-1.33.2 10 10 0 0 0-1.93.66l-.08.04a10 10 0 0 0-2.38 1.57 10 10 0 0 0-3.35 7.35v14.3z"/><path fill="none" stroke="#000" stroke-miterlimit="22.93" stroke-width=".01" d="M475.79 192.83h.6v-14.22l-.02-.76-.03-.26a11 11 0 0 0-.26-1.48l-.02-.06v-.03l-.08-.27-.1-.28a9.9 9.9 0 0 0-9.39-6.78h-.61v.01l-.22.02a9 9 0 0 0-1.33.2 10 10 0 0 0-1.93.66l-.08.04a10 10 0 0 0-2.38 1.57 10 10 0 0 0-3.35 7.35v14.3z"/><path fill="#fff" d="M457.27 192.76h19.05V178.6l-.03-.75a9 9 0 0 0-.3-1.8 9 9 0 0 0-.76-1.95 10 10 0 0 0-1.75-2.4 9.8 9.8 0 0 0-6.99-2.95h-.54v.01l-.28.02a12 12 0 0 0-1.33.2 11 11 0 0 0-1.98.69 10 10 0 0 0-2.37 1.56 10 10 0 0 0-3.32 7.38v14.14z"/><path fill="none" stroke="#000" stroke-miterlimit="22.93" stroke-width=".01" d="M457.27 192.76h19.05V178.6l-.03-.75a9 9 0 0 0-.3-1.8 9 9 0 0 0-.76-1.95 10 10 0 0 0-1.75-2.4 9.8 9.8 0 0 0-6.99-2.95h-.54v.01l-.28.02a12 12 0 0 0-1.33.2 11 11 0 0 0-1.98.69 10 10 0 0 0-2.37 1.56 10 10 0 0 0-3.32 7.38v14.14z"/><path fill="#fff" d="M475.34 191.8h-17.69v-13.2a8 8 0 0 1 .04-.84 8.9 8.9 0 0 1 5.08-7.21 9 9 0 0 1 1.53-.55l.26-.06a9 9 0 0 1 1.93-.22 8.8 8.8 0 0 1 7.86 4.82 9 9 0 0 1 .69 1.75 9 9 0 0 1 .27 1.62l.03.68z"/><path fill="none" stroke="#000" stroke-miterlimit="22.93" stroke-width=".01" d="M475.34 191.8h-17.69v-13.2a8 8 0 0 1 .04-.84 8.9 8.9 0 0 1 5.08-7.21 9 9 0 0 1 1.53-.55l.26-.06a9 9 0 0 1 1.93-.22 8.8 8.8 0 0 1 7.86 4.82 9 9 0 0 1 .69 1.75 9 9 0 0 1 .27 1.62l.03.68z"/><path fill-rule="evenodd" d="M466.32 169a9.5 9.5 0 0 0-3.85.9 9.6 9.6 0 0 0-5.54 8.7v13.93h19.13v-13.94a9.5 9.5 0 0 0-1.06-4.39 9.6 9.6 0 0 0-8.5-5.2z"/><path d="M457.17 192.35h18.72v-13.76a9.4 9.4 0 0 0-1.04-4.3 9.4 9.4 0 0 0-8.35-5.12 9 9 0 0 0-3.95.88 9.5 9.5 0 0 0-5.44 8.54v13.76z"/><path fill="#176fc1" fill-rule="evenodd" d="M466.48 192.34h-9.36v-10.2h9.36z"/><path fill-rule="evenodd" d="M463.76 185.43c-.02-.08-.05-.19.06-.21q-.15-.03-.16-.13l-.03-.16c-.02-.18-.14-.2-.27-.22-.01-.2.25-.27.4-.09q.01-.11-.04-.15c.09-.02.31-.05.42.11l.11-.1q.11-.05.18 0c.05 0 .12.04.17.03q-.06-.12-.04-.26.01-.1.1-.21.07-.06.09-.17c0-.18-.13-.2-.11-.42-.16.05-.15.24-.2.33-.03.06-.15.2-.23.2-.12.01-.23-.05-.25-.12-.12.02-.48.01-.5-.2.17.02.24-.04.29-.1q-.05-.06 0-.17c.02-.12.2-.14.27-.08a.3.3 0 0 1 .15-.26q-.11-.02-.18.03l-.1.09q-.08.02-.14.01c-.13-.07-.07-.1-.2-.15-.08.01-.25-.02-.3-.1q-.05-.08-.03-.2 0-.11.1-.16c.1.1.13.07.2.03q.1-.13.26-.11c.1 0 .1.03.15.08.1.09.13 0 .24-.02h.28c.04-.06.22-.27.31-.27q.09 0 .15-.06a.2.2 0 0 1 .14-.05q.03.06.03.17 0 .05.03.09c.05.03.07.03.07.09 0 .1-.12.15-.08.26q.05-.07.1-.1c.04.01.05.06.09.06 0-.02.03-.28 0-.3.35.07.39.35.32.57q.11-.04.1-.17c.11 0 .18.25.18.33l.04-.14c.2.07.18.34.1.5.09.02.2-.1.24-.16q.04.1.04.2c0 .1-.1.27-.2.3.13.08.16.14.18.2-.05 0-.07.07-.06.09 0 .01.07.03.07.1l-.07.05a.1.1 0 0 0 0 .09c.09-.02.05.15-.04.15.05.05.17.15.1.28q-.04-.07-.15-.06.1.08.12.2v.06h-.08c.06.07.06.18.07.2h-.1q.01.14-.06.18c-.11-.14-.15-.17-.3-.29-.12-.1-.15.12-.19.15a.3.3 0 0 1-.2.07l-.09-.01q-.08.02-.13.13c-.12.2-.13.36.01.66.2-.03.42.13.56.23.08.05.19.13.32.13.12 0 .15-.06.26-.1a.4.4 0 0 1-.02.25.3.3 0 0 1-.11.13c.06.19.18.28.2.51 0 .3-.08.6-.08.86 0 .38.03.16.03.56a.3.3 0 0 1-.2-.07l-.05-.07-.04-.08c-.1.26-.41.63-.5.86-.07.21-.1.42-.06.72l-.1.01c-.13 0-.15-.07-.21-.11l-.01.1c.1.1.22.1.29.1q.1 0 .17-.05t.12-.07q-.09-.1-.1-.26c0-.04-.06-.23-.12-.26.08-.08.21.02.29.02 0-.07.1-.11.12-.14.08-.08.25-.25.08-.32a.2.2 0 0 0-.14-.01c.16-.26.48.04.53.22.02.09.02.32 0 .4 0 .05-.07.17-.12.2.06.08.15.24.12.35q-.03.11-.1.13c-.13-.29-.37-.14-.55-.03-.23.15-.53.05-.61-.07-.19.2.1.52.1.68a.4.4 0 0 1-.25 0 1 1 0 0 0 .3.29c-.06-.25.11-.4.31-.5l.4-.2q.15-.12.32-.14l-.05.34.02.29-.03.2c-.01.12-.13.21-.18.26.06.07.11.09.11.2q0 .18-.1.34c-.07.1-.21.07-.32.07.14-.1.16-.17.1-.33-.12 0-.22.02-.35-.06l-.14-.2c-.23.07-.47-.2-.54-.36a1 1 0 0 1-.1-.48q0-.31.13-.59c-.3-.3-.34-.8-.24-1.23.09-.33.43-.72.55-.96q-.19-.1-.24-.2l-.05-.27c0-.12.1-.25.2-.29.06-.02.2-.06.24-.1q.12-.16.05-.32c-.05-.07-.08-.1-.18-.1-.15.34-.53.48-.84.68-.38.25-.46.32-.66.6q-.08.08-.12.19c.16 0 .25.11.3.15-.05.02-.17.07-.18.3.15-.04.3.05.42.14-.04.05-.15.13-.17.2-.06.11-.04.17-.04.3h.12c.07 0 .17-.02.24.02l-.04.08-.12.19v.16l.14-.04c.05-.03.06-.05.12-.07l.14.01c0 .22-.23.35-.29.54.1-.01.27.1.36.2l-.24.2c-.04.04-.16.12-.16.29q.13 0 .22.07.06.09.05.2c-.05-.03-.06-.03-.13-.03h-.05l.05.03q.06.04.07.12a.3.3 0 0 1-.04.15q-.05-.1-.15-.11c-.07 0-.08.08-.13.11l-.16.1c.14.22.33.34.4.37 0 .08-.08.23-.15.26q-.1.02-.16-.02-.05.03-.11.03-.12 0-.16-.08-.03-.1-.01-.2h-.13c.08.1.13.21.03.31q-.02.04-.11.04c-.05 0-.11.22-.28.22-.04 0-.1 0-.16-.08l-.07-.14c-.02-.02-.12-.03-.16-.1s.01-.2.05-.25h-.13l.02.08q0 .13-.09.2a.1.1 0 0 1-.13.02q-.04 0-.06-.06c-.07.15-.25.12-.33.03-.03-.04-.1-.12-.03-.24.17 0 .32-.15.32-.24 0-.1-.05-.11-.1-.16a.3.3 0 0 0-.25-.08l-.1.03c-.03 0-.1.01-.12-.09q-.02.07-.05.09c-.07.04-.13-.05-.15-.1v-.18q.05-.2.09-.2c.02-.02.05.06.08.06q0-.07.03-.12c.06-.1.08-.08.22-.11a.3.3 0 0 1 .05-.16c-.14-.06-.5-.02-.63.03-.26.1-.28.22-.24.45-.16.08-.42.02-.48-.15-.1-.31.26-.57.52-.65.13-.04.65-.01.82.1 0-.12-.1-.17-.05-.29q.05-.1.17-.1h.1c-.12-.15-.24-.12-.28-.06-.08.08-.16.18-.28.18-.16 0-.23-.07-.31.01a.3.3 0 0 1-.19.07q-.14.01-.18-.1.11.04.18.02c.09-.02.13-.12.16-.2-.05 0-.23.04-.37.03a1 1 0 0 1-.3-.08c-.14.11-.3.29-.47.4-.26.18-.94.44-.94.86 0 .14.12.32.13.51 0 .16-.16.3-.32.33-.06.08-.1.14-.23.17-.1.03-.2.05-.27-.06q.2-.08.2-.22-.1-.01-.12-.14-.01-.09.06-.16-.1 0-.08-.09c0-.05.08-.11.06-.21-.13.07-.19.1-.25.28-.04.13.03.31-.09.4q-.13.13-.3.04-.13.15-.33.14-.14.01-.32-.11c.1-.05.24-.19.24-.29q-.01-.14.05-.22c.06-.08.1-.08.15-.13-.04-.07.06-.12.07-.2-.13 0-.12.04-.23.05-.15.01-.3-.06-.26-.18a.5.5 0 0 1-.26-.23c-.03-.06-.06-.19.04-.34.02.1.18.2.26.17-.01-.13.07-.14.14-.14.06 0 .11.05.24.03-.06-.15.06-.33.15-.38q.04-.03.12-.03.02-.05-.04-.1c.15-.05.33-.01.43.28.1-.04.18.11.22.1.05-.27-.04-.29-.1-.4-.02-.08-.09-.23.08-.39q.03.1.11.1c0-.09-.06-.25.07-.32q.02.11.1.12c0-.04.02-.1-.03-.18q.12-.02.18.05-.01-.1-.11-.17a.2.2 0 0 1 .18-.04c0-.03.05-.06.04-.1.14-.04.2-.01.34.03 0-.05-.02-.18 0-.24q.02-.1.07-.12l-.2-.13c-.06-.03-.28-.02-.36.04l-.14.2c-.21-.27.04-.5.3-.63q.2-.1.42-.03c.08.04.15.1.24.1q-.12-.19-.42-.36c-.23-.13-.4-.08-.57-.28-.11-.14-.4-.18-.48.02-.1.25-.14.35-.37.26-.08.11-.13.11-.3.11-.12 0-.25-.12-.3-.23.16 0 .2-.05.26-.16-.03-.03-.04-.15 0-.21q.06-.06.22-.06-.05-.22.13-.25.12-.02.14-.08c-.05-.01-.16.02-.2 0s-.03-.08-.08-.08q-.06 0-.12.03-.08.07-.2.05l-.11-.05q-.05-.03-.03-.07a.5.5 0 0 1-.24-.15c-.09-.13-.15-.41 0-.56.08.16.09.2.24.2q-.02-.08.04-.09l.12.04c.04.01.06-.07.1-.07.08 0 .04.08.2.08.09 0 .07 0 .12.05.02.02.14.06.17.07.02 0 .1.07.1.08.04-.08-.05-.14-.08-.25-.02-.05-.08-.05-.11-.09-.06-.06-.12-.1-.13-.21-.01-.06 0-.15.04-.16q.03-.02.1.02c.04-.17.16-.29.48-.33.04 0 .15.03.19.13q-.11.04-.09.16c.06-.01.04.1.05.16.05-.01.02.06.03.14q.01.09.08.16c.1-.34.32-.3.48-.17.1-.02.16.09.21.16.17-.01.33.09.44.2l.01-.07q.1.02.19.13v-.08c.07 0 .17.09.19.15.04-.01.05-.1.04-.15.05.01.19.1.26.2.03-.03-.02-.13-.04-.18.11-.03.26.17.3.26q.08-.06.08-.17c.08 0 .2.23.2.25.04-.04.05-.14.12-.19q.06.06.08.16l.06-.01q.04.02.07.08.06-.1.17-.13c.07-.03.24-.03.25.02q-.07.1-.1.2l-.06.2q.09-.02.12-.14c.08-.19.06-.14.3-.26.1-.05.38-.14.8-.09-.11-.15-.6-.29-.79-.31-.32-.05-.4.05-.67.05-.19 0-.37-.1-.43-.2-.1.11-.26.16-.48-.11-.04.04-.2.1-.33-.06q-.15-.16-.26-.04-.07.1-.01.2c-.14-.01-.28-.16-.28-.26 0-.16.16-.24.23-.24-.23-.08.16-.27.26-.28l.32-.03c-.13-.07-.19-.13-.18-.28q0-.1.13-.2-.09.01-.12-.05-.03-.09 0-.14a.5.5 0 0 1-.35-.15c-.09-.1-.23-.21-.34-.31-.14-.12-.28-.26-.42-.25-.03 0-.17.03-.21.15-.02.05.02.1-.03.21-.04.08-.08.13-.2.13a.1.1 0 0 1-.08-.04c-.07.1-.25.1-.37.05a.34.34 0 0 1-.2-.35c.05.06.16.13.22.1.05-.01.12-.03.12-.1q-.15.01-.2-.05-.08-.08-.03-.19c.02-.04.1-.17.22-.12l-.01-.14c0-.03.04-.1.09-.12-.14 0-.2 0-.32.06-.05.04-.16.02-.2-.02l-.1-.1c-.11.11-.3.07-.42 0a.3.3 0 0 1-.12-.17.3.3 0 0 1 0-.16c.1.06.15.06.27.06l.15-.03-.01-.19q0-.09.02-.16l.1.08v-.12l.06.03.1.08.07.05-.01-.15.07.03.08.08.1.04c0-.04-.06-.08-.04-.18h.08c0-.11.07-.3.17-.35s.26-.03.38-.03l-.04.26c.1.02.1.06.09.12q.05-.08.11-.09l.05.07q.06-.1-.02-.18l-.13-.1c.23-.24.55.06.63.23.05.12.1.37.09.53 0 .03.05 0 .07.01q.04-.21.08-.3c.08-.15.2-.17.37-.15.03 0 .18.02.2.13l-.14.1q-.08.07-.07.2a.4.4 0 0 0 .14-.13c.03-.05.05-.07.07-.14l.03-.19q.16.05.19.26c.07-.03.05-.15.02-.2.12.05.28.1.31.27.15.04.22.03.31-.02q.06.18.08.33c.12-.09.16-.07.3-.05-.09.08-.16.12-.18.23l-.03.18q.1 0 .14-.07.06.07.08.15.14-.12.03-.28c.24-.08.32.17.32.29 0 .15-.1.2-.1.3q.01.05.05.1c.06-.19.07-.24.23-.22-.02.17.07.28.08.43 0 .05-.06.14-.11.17-.04.03-.13.16-.17.18-.21.2-.12.41.06.5q.14.06.3.04c.33.02.92-.01 1.08.17m1.63 2.2q.14-.13.18-.31-.13-.05-.21.09c-.06.09-.01.16.03.23m.59-.27q-.07.36-.37.65l-.02.33a.3.3 0 0 0-.08-.17c-.11.1-.11.3-.19.64a.4.4 0 0 1-.13-.15c-.08.1-.1.36-.1.66l-.17-.14a.7.7 0 0 0 .07.58c.4-1.1 1.22-1.82.99-2.4"/><path fill="#ffce00" fill-rule="evenodd" d="M463.85 191.51c.18.23.34.24.4.26 0 .1-.09.22-.22.16l-.17.03c-.1 0-.07-.16-.07-.26h-.27c.06.08.17.23.08.3h-.09c-.04 0-.12.22-.27.22-.07 0-.14-.15-.17-.19-.02-.02-.11-.03-.15-.08-.03-.04.04-.22.08-.25h-.24c-.06 0 .08.17-.11.27-.03.01-.09-.05-.1-.07-.07.1-.19.14-.26.08-.03-.03-.11-.1-.05-.18.24 0 .28-.15.32-.29z"/><path fill="#fff" fill-rule="evenodd" d="m464.13 191.12.03-.12q.15.04.2.15-.11-.06-.23-.03m-.04-.26q.06.03.07.08.11-.07.24-.01-.09-.19-.31-.07m-5.26 1.14q.19.03.36-.16-.08-.1-.18-.09a.4.4 0 0 1-.18.25m-.65-.17a.3.3 0 0 0-.21-.16 1 1 0 0 1-.21.25q.16.1.42-.09"/><path fill="#fff" fill-rule="evenodd" d="M458.93 191.09c.1-.03.22-.11.3-.16 0 .14-.02.33.11.49s0 .42-.12.33q-.1-.07-.3-.07c-.06 0-.1-.1-.02-.15.05-.03.13-.06.14-.11q-.16.08-.18-.05c0-.09.1-.09.07-.28m-1.31-.2q.12-.1.05-.2c-.12 0-.2-.08-.3-.15q0 .27.25.35m.64-.82q.12.1.08.2c-.08-.03-.19.02-.29.06q.03-.19.21-.26"/><path fill="#fff" fill-rule="evenodd" d="M458.86 190.45c-.05-.04-.03-.1-.1-.15a.2.2 0 0 0-.13-.04c-.09 0-.06-.1-.1-.15s-.1-.12-.2-.12q.1.07.11.22.01.1-.04.13c-.07.08.08.12.11.18q.04.08.02.14-.01.07-.05.1c-.02-.08-.03-.1-.1-.17l-.07-.02q.05.08.02.22c-.07-.04-.05-.12-.1-.17q-.05-.08-.12-.1l.05.15q.01.07-.04.12a.5.5 0 0 0-.15-.25c-.08-.07-.34-.06-.26.08.07.1.04.21 0 .28-.04.05-.1.06-.07.1.06.1.23.06.3 0 .04-.05.38-.07.4 0a.3.3 0 0 0-.17.14q-.05.05-.06.11-.01.04.05.07-.14 0-.15.03-.1.03-.13.13-.05.08.02.15c.11-.07.4.1.4.24.45-.1.04-.35.39-.69.13-.13.35-.28.45-.32.2-.09.16-.36.56-.58.19-.1.3-.06.47-.14.21-.1.38-.27.53-.42q-.13-.16-.45.02c0-.35.22-.36.46-.36a.4.4 0 0 1-.2-.22c-.1-.19-.16-.2-.34-.25q-.1-.02-.17-.09l-.15-.15c-.06.05-.09.17-.07.27.01.15.05.23.05.33-.14-.07-.13-.22-.32-.16l.08.1q.1.1.11.23-.07-.02-.1-.08-.06-.08-.13-.14c-.07-.03-.09-.05-.17-.05.06.12.18.17.19.3q.01.1-.05.21l-.08-.16a.3.3 0 0 0-.12-.11q.02.07.02.15c0 .06.03.09 0 .2q-.04-.06-.12-.12a.2.2 0 0 0-.12-.07l.01.13c.02.05.1.33.05.34a1 1 0 0 0-.25-.21l.07.16q.04.13.04.25c0 .05-.05.22-.08.21m.13.02q0-.03-.02-.04-.03 0-.04.02l-.01.02-.01.01q-.02.04-.05.04a.03.03 0 0 0-.03.04q0 .02.04.03.05 0 .1-.07v-.02zm.04-.15v-.17m-.04.16q0 .02.03.04l.04-.02v-.18q0-.03-.03-.03-.04 0-.04.03v.05h.01zm.09-.05q0 .04.02.04t.04-.03v-.17q0-.03-.03-.04-.04 0-.03.04zm.1-.04q0 .04.04.04.03 0 .03-.04v-.1l.01-.05.01-.05q0-.02-.02-.03t-.04.02l-.01.05-.01.05zm.11-.07q0 .03.03.04.04 0 .04-.03v-.21l-.02-.03a.03.03 0 0 0-.04.03zm.09-.1q0 .04.03.04t.03-.03v-.23h-.06v.23m.07 0a.03.03 0 1 0 .06.02v-.02a.3.3 0 0 0 .02-.18l-.02-.09a.03.03 0 0 0-.05-.01zm.12 0q0 .03.02.03t.04-.02v-.43l-.03-.03-.03.03zm.11-.06q.01.03.04.02.04 0 .03-.04v-.15l.01-.1v-.17l-.03-.03-.03.03v.09l-.01.17q-.02.09 0 .18m.08-.1q0 .02.04.03l.03-.03v-.5a.03.03 0 0 0-.03-.04.03.03 0 0 0-.04.04zm.11 0 .04.02q.02 0 .03-.03l-.01-.08v-.04l-.01-.15v-.23a.03.03 0 0 0-.03-.04.03.03 0 0 0-.03.04v.43zm.07-.14q0 .04.04.04.02 0 .03-.04v-.33l.01-.14v-.1a.03.03 0 0 0-.04-.03l-.03.03zm.12-.06q0 .03.03.03t.03-.03l.01-.65q0-.04-.03-.04-.04 0-.03.04zm.07-.1q0 .03.02.05.04 0 .04-.03v-.01q.03-.1.01-.19v-.35a.03.03 0 0 0-.03-.04l-.03.03zm.1-.15q0 .03.04.03.02 0 .03-.03v-.31a.03.03 0 0 0-.03-.04.03.03 0 0 0-.04.04zm.1-.08q0 .03.04.03.03 0 .03-.03v-.33q0-.03-.03-.03-.04 0-.03.03v.05l-.01.07z"/><path fill="#fff" fill-rule="evenodd" d="m462.54 191.45 1.2-.01q.03-.05.02-.13.16.03.24-.04a.3.3 0 0 0 .09-.21q0-.16-.14-.16.06.05.06.13 0 .12-.07.17-.05.04-.14.04c0-.12-.01-.15-.06-.21s-.14-.1-.2-.12a.1.1 0 0 1 .14 0q.04.01.1.07a.2.2 0 0 0-.1-.17l-.18-.1a.1.1 0 0 1 .1-.01c.04 0 .1.05.13.07l.09.1q-.01-.08-.05-.13l-.19-.15q.1 0 .2.07l.14.15a.3.3 0 0 0-.09-.18l-.13-.08c.06-.01.17.04.22.1q.04.04.08.14a.2.2 0 0 0-.03-.21c-.02-.02-.07-.11-.24-.2.07 0 .19.05.24.1s.13.12.15.18c.02-.1 0-.2.08-.24.05-.03.26-.16.14-.23q-.12-.09-.24-.04-.01-.15.04-.28l.11-.17-.12.02-.1.11a1 1 0 0 1-.08-.3q.01-.12.07-.26l-.13-.02q-.07 0-.1.04a.6.6 0 0 1-.02-.4q.01-.06.1-.25-.16-.04-.23.09c-.1-.06-.1-.14-.1-.26q0-.09.07-.24-.2.01-.24.12c-.06.15 0 .23.02.32s.12.2.11.28c-.08 0-.13-.2-.15-.24q-.04-.06-.06-.17a.4.4 0 0 1-.23-.25c-.02-.04.02-.14.03-.16q.05-.07.11-.12-.2-.06-.26.16-.02.14 0 .17l.04.13.03.08q-.05.05-.06.12-.01.09.06.17l.06-.11c.13.03.26.14.33.23q.11.17.1.3c-.05-.06-.1-.23-.23-.35 0 .07-.03.18-.1.2-.04-.04.06-.12-.04-.24q-.14.1-.2 0-.05-.04-.06-.22-.09.05-.1-.03.12-.01.13-.07c.04-.09-.04-.2-.03-.29a.6.6 0 0 1 .13-.33q-.12-.03-.2.04a.3.3 0 0 0-.1.18q-.05-.05-.16-.07c.1.08.11.17.15.3q.02.08-.01.19 0-.16-.1-.28-.04-.1-.12-.1c.07.1.05.12.05.24q-.09-.09-.15-.2-.06-.1-.05-.22c-.02.04-.07.1-.11.09q-.05 0-.15-.08c0 .12.1.12.2.12.02.12 0 .2.13.32.03.03.16.1.16.15-.09.02-.21-.1-.32-.15-.15-.05-.27-.08-.32-.24-.03-.1-.05-.29.13-.41-.23-.13-.34.08-.36.18-.04.14-.01.45.2.59.18.11.74.17.7.48q-.08-.16-.38-.3c-.22-.1-.35-.06-.45-.22-.12-.19-.26-.16-.39-.12.01-.12.14-.11.27-.1-.08-.17-.35-.03-.47-.11a2 2 0 0 0-.4-.24c.14.39.43.53.6.86.28.5 1 .16 1.13.53a.6.6 0 0 0-.34-.14c-.25-.01-.58-.07-.72-.22-.17-.17-.2-.32-.33-.38q-.13-.04-.35-.02c-.21-.01-.39-.29-.65-.25.12.15.24.32.49.34.15.01.5-.04.58.16-.09-.02-.23-.09-.3-.09-.23 0-.46-.02-.6-.14-.37-.34-.42-.4-.8-.4-.17.01-.4.2-.37.39q.2-.18.37-.17c.37.03.56.36.72.4q.18.02.29.13c.09.1.13.25.22.34q.08.05.17.08c.22.1.35.16.73.06-.15.17-.56.12-.75.02-.14-.07-.5-.04-.5.15.44-.05.38.08.66.15.18.04.64.05.83-.16-.03-.06-.14 0-.18.01l-.12.05c-.13.03-.25.08-.38 0 .14 0 .3-.03.4-.07q.31-.13.67-.04c.2.06.43.2.46.42a.8.8 0 0 0-.46-.35c-.14-.04-.3-.04-.39.07q-.07.08-.14.12c-.06.02-.13.03-.15.13.11-.03.2 0 .3 0s.2-.2.36-.2c.08 0 .3.12.32.23-.05.01-.14-.04-.2-.03-.1 0-.18.1-.14.25.24.03.73-.14.73.14v.29q-.02.14-.1.12l-.16-.04c-.1-.02-.11.02-.2.09-.07.05-.24-.1-.35-.08q-.16 0-.16.14c0 .15-.15 0-.16.25q0 .15.02.14c.05 0 .08-.09.08-.18q.06.01.05.07c.04.2.16.1.32.12.09.02.24.08.29.19m.4-.15c-.05.05-.08.01-.08-.03q.02-.1.1-.03.02.04-.02.06m-.17-.12.02-.06q0-.06.06-.09h.02l.08-.01.05.01.03.02h.02l-.07.04-.04.03-.06.02q-.07.01-.1.04m-.23.15q.02.02.05.01.02 0 .01-.04l.01-.04.08-.01h.02l.04.04c.05.07.12.13.22.05l.08-.1h.06v.01l.02.02q.02.05.1.06l.02-.04q0-.03-.03-.03l-.04-.03-.02-.03h-.02v-.01l-.04-.01h-.03v-.01l.04-.1.02-.03h.15q.04 0 .04-.04 0-.05-.04-.03h-.12l-.1-.09q-.03-.01-.04.02.01.03.05.05l.04.03-.04.02h-.01l-.05-.03-.05-.01h-.13l-.02.01q-.08.05-.09.13 0 .05-.03.08-.06 0-.1.02h-.01q-.04.04-.04.09zm-.55-.18q0 .02.03.03t.03-.02v-.11l-.02-.03a.03.03 0 0 0-.04.03zm.13.01q0 .03.03.03.04 0 .03-.03v-.07l.01-.03-.03-.03-.03.03v.04l-.01.03zm.08 0a.03.03 0 1 0 .06.02v-.02l.02-.03.01-.03a.03.03 0 0 0-.06-.01v.01l-.02.03zm1.5-1.63-.04.01a.03.03 0 0 0 .01.05l.03.02.02.01.04.03h.01l.04.04q.03 0 .05-.02t-.02-.04l-.03-.02-.02-.02-.03-.02-.02-.02zm0 .14q-.03 0-.05.02 0 .03.02.04l.1.05.02.01.1.05.03-.01q.01-.04-.01-.04l-.09-.05-.02-.01zm.04.13h-.04v.05l.05.04q.03 0 .06.04l.07.05q.04 0 .04-.03t-.03-.04l-.03-.02-.01-.01-.07-.05zm0 .15h-.05v.05l.09.05.08.06.04.03.04.02q.03-.01.02-.04-.01-.04-.06-.07zm.1.3.03.01q.04 0 .02-.04-.03-.07-.1-.11l-.03-.03-.02-.01-.05-.04q-.02-.02-.04 0t0 .04l.05.05h.01l.04.04q.05.03.08.08m-.5-.57.03.02q.02 0 .03-.04l-.07-.17-.1-.16a.03.03 0 0 0-.05 0q-.02.02 0 .04l.1.15zm-.24-.12q0 .02.03.03t.03-.03l-.02-.14a.03.03 0 0 0-.05-.02l-.01.04zm-.13-.25q0 .03.03.03t.03-.04-.02-.07l-.05-.05-.04-.04q-.05-.05-.11-.08-.03 0-.04.03l.02.04q.05 0 .08.06l.04.03.04.04zm.07-.12q.01.03.04.02t.02-.04v-.01l-.01-.02-.07-.07q-.03-.03-.07-.03l-.03.03q0 .03.03.04h.03v.01l.05.05zm.42.5.04.02q.03 0 .02-.04l-.06-.18.02-.03.02-.03.02-.03-.01-.04q-.03-.01-.05.01l-.02.04-.02.01-.06-.08a.03.03 0 1 0-.05.04l.1.14zm-.09.55-.02-.04q-.04 0-.04.02l-.02.05v.03q0 .02-.03.05l-.02.02-.07.01-.03.03q0 .03.03.04l.09-.02h.01v-.01l.02-.01.01-.02q.03-.02.05-.08v-.02zm-.05-.16a.03.03 0 0 0-.06-.03l-.02.06-.02.05-.03.03-.06.05q0 .03.02.05.03 0 .04-.03l.04-.02.04-.04.03-.07zm-.24.1q.03.03.05 0l.06-.07h.01q.03-.01.02-.04t-.02-.03h-.02l-.05-.09-.02-.06v-.08a.03.03 0 0 0-.03-.04.03.03 0 0 0-.04.03v.1l.03.08q.02.05.07.1l-.05.05q-.03.01 0 .06m-.27-.3a.03.03 0 0 0-.05 0v.04l.02.03q.03.04.07.06l.04.02.01.02q.02.03.04.02t.02-.04l-.03-.05-.05-.03q-.02 0-.05-.04zm.13.23q0 .03.03.03.04 0 .04-.03v-.13H463q0-.04-.04-.1-.05-.06-.04-.08v-.01q0-.1.03-.14.03-.02.02-.05a.03.03 0 0 0-.05 0c-.07.03-.07.13-.07.19v.01q.01.08.05.12l.04.07zm-.02-.3v-.02m.2.95q.02 0 .03-.03l-.03-.03-.06-.02h-.01l-.03-.01-.03-.02q-.04 0-.04.02 0 .04.02.04l.02.01.04.02zm.04-.14.02-.05-.04-.02-.02.01h-.1l-.03-.01a.03.03 0 0 0-.02.06l.03.01.08.01h.06v-.01zm-.4-.34-.02.07q-.03-.02-.03-.07z"/><path fill="#fff" fill-rule="evenodd" d="M463.28 188.44q0-.16.1-.24c-.12-.12-.2-.16-.24-.03q-.08.17.14.27m-5.54-.64c.18.1.34.13.47-.01q-.04-.13-.15-.15-.05.15-.32.16m-.37-1.5q.17.2.36.19.07.15-.12.28-.3-.14-.24-.47m1.45-.76a.7.7 0 0 0-.24.38q-.12.06-.24-.07.16-.34.48-.31m.3.6q.21-.27.35 0 0 .08-.06.14-.1-.19-.29-.14"/><path fill="#fff" fill-rule="evenodd" d="m460.91 188.39-.17-.04c-.06-.02-.14.01-.16-.01-.16-.16-.3-.1-.43-.16l-.15-.15c-.18-.23-.38-.28-.61-.35-.15-.05-.54-.49-.74-.36-.1.06-.22.2-.22.27 0 .18-.04.2-.15.2 0-.09-.13-.28-.32-.25q-.05-.06 0-.16c.06-.1.22 0 .28.02a.3.3 0 0 1-.02-.25c.03-.07.4 0 .49-.03l.08-.07c.03-.03.11.14.17.08.03-.04-.13-.17-.14-.17-.01-.02-.07 0-.1.02-.02 0-.15-.15-.17-.13s.12.16.11.17l-.03.02-.11-.07c-.06-.05-.08-.07-.21-.07-.14 0-.15-.1-.19-.11-.13-.02-.35.25-.42 0l.06-.04c.02-.02.04-.12.04-.16q.01-.08-.04-.15.02-.04.08-.03c.08.02.11.15.11.22q.03.01.06-.01.04-.03-.02-.14c.08-.04.14.07.16.15q.05-.08.01-.16.08.01.12.1.09.13.22.17.11.04.13-.05c0-.05.02-.1-.04-.09-.01.03 0 .12-.07.05-.05-.06.04-.13.04-.2.01-.08-.1-.25-.13-.3-.07-.08-.27-.1-.18-.25.22.13.37.1.53-.01.05.06.01.13-.02.18q-.08.07-.1.17.1.03.19-.08a1 1 0 0 1-.08.28q.08 0 .15-.09c.03.07.03.1-.03.2l.05.02q.04 0 .05-.06.05.05.03.12.1 0 .12-.09.02-.1 0-.19.01-.06.1-.1.06.1.17.09.16 0 .16-.18.21.07.09.3l-.23.16c.02.06.07.1.15.02l-.02.1-.03.06-.04.05c.01.04 0 0 .02.03l.04.04.02.03q.04 0 .13-.07-.06.14.01.13.01.02 0 .07c0 .04.03 0 .05 0l.05-.02c0 .04 0 .02-.02.05l-.03.07c.1.04.21-.07.25-.1 0 .09-.1.12-.11.16 0 .15.13-.04.23-.1-.02.08-.07.1-.05.14.05.08.12-.08.18-.09-.02.08-.08.1-.07.17q0 .03.03.01l.22-.11q-.06.1-.05.14c.03.08.13-.07.2-.1-.01.02-.07.16-.04.18q.02.02.09-.04-.02.08.05.08l.05-.04c.03-.02.13-.1.18-.09-.03.05-.07.1-.04.14.02.02.06-.03.08-.03q.01.05.05.05h.05c.05 0 .05-.09.13-.08l-.07.14c0 .04.02.02.04.03.06 0 .08-.07.16-.12-.03.06-.09.14-.06.2.04.12.08-.16.15-.16q-.03.21.06.2c.08-.02.04-.07.02-.15q.14.08.13.13c-.07.01-.17.11-.18.23 0 .07.02.1-.03.15-.12.11-.6-.16-.64-.3l.07.04c.03.01.13.04.1-.02l.08.02.01.02.02.02.02.01.02.02v.02l.01-.02v-.04q.04.01.07.05c.02.01.13.06.13.02s-.08-.06-.06-.09.12.17.15.14c.05-.06-.12-.23-.14-.23s-.04.09-.07.07l-.1-.08q-.06-.04-.1-.09c-.02-.03-.07 0-.08-.03l-.03.03-.01.01-.02.01-.02.03-.02.02-.1-.05-.02-.01h-.02v-.02h-.05c-.04.04-.01.08-.06.05q-.08-.06-.18-.06-.02.02-.01.06c0 .05-.13-.06-.15-.04-.02 0 .01.1-.05.05q-.05-.04-.08 0c-.02.04-.09-.03-.12-.03-.15-.01.11.16.12.16.04.03.2.1.12 0l-.06-.07.13.1s.04-.04.01-.05c-.13-.08.05-.1.12.02.02.04.1-.1.1.02 0 .1.24.11.24.22 0 .06-.02.11.03.15.03.02.1.13.14.14m-1.79-1.17h.05a.03.03 0 0 0 0-.05l-.11-.11q-.03-.03-.05 0v.04z"/><path fill="#fff" fill-rule="evenodd" d="M459.78 186.96c.06 0 .2-.04.25.08.05 0 .13-.02.15.06q.1-.05.14.02.09 0 .1.08c.07-.07.16-.13.15.02q.1-.04.14-.02c.07.01-.05.15-.06.22.08-.04.3-.24.32-.1q.21-.09.02.15c.06-.03.28-.12.33-.04.07.01.15 0 .15.08.12.03.18.12.22.18.16 0 .24-.19.25-.24-.08-.23-.02-.45.08-.68-.24.04-.25.27-.25.6-.06-.1-.08-.19-.08-.41-.09.05-.1.2-.1.28q-.07-.1-.06-.25 0-.1.05-.2c-.07-.02-.15.04-.18.1a1 1 0 0 0-.04.3l-.05-.22-.03-.12.01-.09q-.1.01-.15.11l-.04.23a1 1 0 0 1-.13-.35c-.07.02-.09.18-.11.3-.03-.15-.1-.34-.2-.41q.05.19-.03.3c-.03-.07-.06-.23-.13-.23-.01.08.03.2-.04.26-.02-.06-.03-.17-.12-.25a.4.4 0 0 1-.08.2c-.01-.1-.05-.22-.1-.24-.01.06 0 .19-.06.21 0-.15 0-.29-.09-.41-.03-.04-.08-.18-.16-.17.03.2.03.46-.07.65m2.19.6c.25 0 .33.03.45.1.05.03.23.22.23.35.24-.27.56-.07.68.01.28-.1.3-.27.34-.35.29-.49 1.34-.69 1.41-1.28l.2.01c.1.02.22.03.28.14q.01.06-.05.07l-.06-.07q-.06-.07-.23-.03c.16.06.38.19.22.49-.1.19-.45.06-.48.43 0 .12.1.32.22.4.07.04.21.07.34.24 0-.14-.11-.19-.19-.27-.06-.06-.1-.08-.15-.2a.3.3 0 0 1 .04-.3c.08-.12.24-.13.38-.14.07.1.02.27-.03.37l-.08.15c-.03.02-.1.04-.08.11q.09.03.13.1c.07-.05.21-.3.24-.39a1 1 0 0 0 .07-.36c0-.1-.05-.2-.02-.27q.03-.06.06-.04c.12.05.23.72.18.92-.15.52-.45.91-.7 1.35l-.13.29-.2.43c-.12.27-.25.5-.23.9a1 1 0 0 0 .22.59c.04.02.2.2.4.14.01.18.23.28.42.28q.13 0 .15.13 0 .07-.03.13.12-.04.11-.2 0-.15-.17-.23l.14-.1a1 1 0 0 0 .16-.28c.03-.13-.07-.31-.02-.58-.08.08-.1.1-.11.21q0 .14-.08.18c-.07-.04 0-.22.05-.36a.3.3 0 0 0-.18.18l-.02.23c-.13 0-.1-.15-.07-.24-.16.07-.15.32-.09.42-.12 0-.2-.15-.2-.27-.15.06-.1.23-.06.37a1 1 0 0 1-.33-.16 1 1 0 0 1-.2-.33c.1 0 .14.12.3.06-.23-.19-.22-.33-.21-.48 0-.2.04-.43.22-.7.02.13.04.25.16.32-.04-.2-.04-.31 0-.5.02-.1.07-.26.14-.39l.3-.47c.13-.2.21-.4.23-.41a.4.4 0 0 0 .19.3 1 1 0 0 1 0-.46c.04-.17.06-.26.06-.55 0-.18-.02-.46-.27-.8.15 0 .27-.05.24-.23-.05.06-.14.2-.3.09-.29-.22-.48-.34-.87-.34-.02-.18-.17-.31-.17-.5 0-.1.01-.26.12-.38.07-.08.1-.13.16-.24q.08.08.12.08.11-.01.18-.1c.07-.08.1-.1.2-.1.07 0 .28.07.34.19q.03-.15-.06-.25a.3.3 0 0 0-.17-.11c.07-.03.12-.04.24.03.01-.14-.11-.2-.21-.22q.08-.1.23-.08-.04-.12-.25-.13c.05-.1.18-.13.27-.11-.05-.11-.16-.13-.24-.13.01-.12.12-.08.22-.08-.06-.13-.18-.11-.3-.11.08-.09.14-.08.25-.07-.03-.07-.07-.11-.22-.11.07-.02.39-.05.38-.28-.1.06-.24.16-.4.14.04-.14.16-.2.16-.36-.1.08-.16.16-.27.16.06-.1.08-.27.08-.38-.07.05-.17.18-.25.09.03-.07.07-.08.07-.2a.3.3 0 0 1-.36-.23c-.17.09-.2.33-.24.35.03-.23-.03-.2-.03-.36 0-.06.04-.1.04-.18-.07.03-.24.1-.36-.09-.16.14-.13.16-.12.46-.09-.06-.02-.22-.2-.34-.1.05-.09.23-.17.18-.04-.02-.05-.06-.12-.08q0 .06-.03.1c-.01-.05-.06-.19-.18-.22q.05.13-.01.22c-.06-.18-.16-.24-.21-.1q.06.1-.01.27.13-.01.13.04.03.08.1.09c.08 0 .15-.09.19-.11.08-.04.29-.04.36.1-.1 0-.18-.02-.22.05a.3.3 0 0 0-.05.17q.01.05-.04.06c-.06 0-.06-.14-.17-.09-.07.03-.14.17-.06.2q.05-.06.1-.05c.02 0 .07 0 .05.03l-.04.02q-.06 0-.08.03 0 .06.06.05.07.01.1.07l.04.12q.14.05.18 0a.4.4 0 0 0 .13-.14l.02-.14c.05-.09-.02-.1.08-.16.06-.03.16-.09.25-.09a.4.4 0 0 0-.02.3c.03.1.13.18.13.31 0 .22-.2.26-.2.45v.39c-.1-.06-.16-.1-.26-.03-.09.06-.13.24-.21.23 0-.13-.17-.3-.28-.3.04.1.06.27.02.31q-.1-.2-.32-.22c.2.2.09.39.26.46l.12.03c-.13.06-.13.13-.13.26 0 .18.16.23.24.23.06.08-.05.21 0 .27h.07c.1 0 .1-.01.03.06q-.09.08.03.06c.08-.03.07.04 0 .06q-.1.04-.06.09c.03.02.08 0 .08.03 0 .04 0 .01-.04.05-.05.05.05.02.06.04.04.03-.02.07-.05.07-.06 0-.05.05-.1.1l-.09.15q-.08-.08 0-.2c-.16.05-.18.17-.29.23-.03.02-.2.03-.32.05-.18.04-.33.03-.54.03 0 0-.28 0-.39.13.07 0 .12-.04.15.05-.08 0-.22-.02-.23.04q.11.01.12.08c-.08 0-.1.02-.2.06l-.12.07-.1.07-.08.07c-.02.03 0 .14-.01.23m.15-.15-.03.02q0 .03.03.04.1 0 .2.05l.15.1h.05a.03.03 0 0 0 0-.05l-.18-.1zm.19-.13q-.03 0-.04.03 0 .04.03.04.09 0 .16.05.06.03.12.1h.05a.03.03 0 0 0 0-.05l-.14-.1zm.13-.12q-.03 0-.04.03l.02.04.19.08q.08.06.15.14h.05q.02-.02 0-.04l-.16-.15zm.17-.1-.04.02q-.02.04.03.04l.16.07.13.12q.02.03.05 0v-.04l-.14-.13zm.22-.08-.04.02q-.02.02.02.04.1.03.16.1.08.06.13.14.02.03.05.01.03-.03 0-.04l-.13-.16zm.17-.05q-.03-.01-.05.02l.02.04q.1.03.17.1.08.05.13.14h.05v-.04l-.14-.16zm.23-.08q-.02-.01-.04.01t.02.05q.06.02.1.08l.08.14q.01.02.04.01.04 0 .02-.04l-.09-.15a.3.3 0 0 0-.13-.1m.16-.02q-.03 0-.04.02 0 .03.02.04.05 0 .08.05l.05.08q.02.03.05.02.02-.02.01-.05l-.06-.1zm.19-.04a.03.03 0 0 0-.03.04q0 .02.03.03l.04.01.04.06q.02.03.05.02.04-.02.01-.05l-.05-.07a.1.1 0 0 0-.1-.04m.17-.06q-.02 0-.03.03 0 .04.03.03.05.01.09.07.02.03.04.01l.01-.04q-.03-.09-.14-.1m.18-.05q-.03 0-.05.02 0 .03.02.04l.04.02.03.03h.04q.02-.01 0-.04l-.04-.04zm.81-.16h.05a.03.03 0 0 0 0-.05l-.17-.11-.04.01.01.05zm.03-.15h.05q.02-.02 0-.04l-.13-.12h-.04a.03.03 0 0 0 .01.05zm.03-.18h.05v-.05l-.07-.05-.06-.04q-.03-.01-.04.01t.01.04l.06.04zm-.03-.18q.02.03.05 0v-.04l-.05-.05-.06-.02q-.03-.01-.04.02 0 .03.02.04l.04.02zm0-.17q.02.02.04 0v-.04l-.05-.06-.06-.04q-.02-.01-.04.01l.01.04.05.04zm-.02-.16h.04v-.04l-.1-.11h-.04a.03.03 0 0 0 0 .05l.05.04zm0-.17q.02.02.05.01.02-.01.01-.04l-.07-.1q-.03-.03-.05 0v.04zm0-.24-.04.02.02.04.02.01.02.04q.02.02.05 0v-.04l-.03-.04zm.07-.07q-.03-.01-.05.01t.02.05h.01l.04.04q.02.03.05.01v-.04l-.05-.06zm.2-.18-.03-.03q-.03 0-.03.04v.01l.01.06q0 .03.04.03.03 0 .03-.04v-.06h-.01zm.1-.07q-.02-.03-.05-.01-.04.03 0 .04v.02l.02.06q0 .03.04.02.03 0 .02-.04l-.02-.07zm.15 0-.04-.01-.02.04v.01l.03.08q0 .03.03.02t.03-.04l-.02-.07v-.01zm-1.15.75q-.03.02 0 .05t.04 0l.07-.09-.02-.04-.04.02zm0-.16q-.03.02-.01.05.03.03.04 0l.08-.08q.01-.03-.01-.05-.03 0-.05.02l-.02.03zm.04-.2a.03.03 0 0 0 0 .05q0 .03.04.01l.09-.08a.03.03 0 0 0 0-.05.03.03 0 0 0-.05 0l-.04.04zm.04-.14q.03-.01.01-.04 0-.03-.04-.01l-.05.03-.04.04a.03.03 0 0 0 0 .05h.05zm-.03-.16a.03.03 0 0 0-.05-.04l-.02.02-.03.06q0 .03.02.05l.04-.02.03-.05zm.26-.15v.04q0 .02.04 0l.12-.07a.03.03 0 0 0 0-.05h-.04zm.1-.12a.03.03 0 0 0 0-.05.03.03 0 0 0-.05 0l-.12.09v.04q.01.02.04 0zm.23-.15q0-.03-.03-.03l-.03.03v.05q0 .03.02.04.03 0 .04-.03zm.21-.35a.03.03 0 0 0-.04.03q0 .03.03.03t.06.02c.03.02.03 0 .05.02h.04a.03.03 0 0 0 0-.05l-.07-.04zm-.01-.11-.03.03q0 .03.03.03h.15q.02.01.03-.02t-.02-.03zm0-.1a.03.03 0 0 0-.04.03l.03.03h.1q.04 0 .04-.03a.03.03 0 0 0-.04-.04zm-.03-.54q.03-.01 0-.04h-.04l-.06.05v.04q0 .03.04 0zm-.03-.12q.02-.03 0-.05t-.04 0l-.04.03a.03.03 0 0 0 0 .05h.04zm-.05-.11v-.05a.03.03 0 0 0-.05 0l-.09.11v.05h.05zm.56 1.2h-.04a.03.03 0 0 0 0 .05l.12.1.08.11q0 .03.04.02.04-.02.01-.04-.03-.08-.09-.14zm-.2-1.14-.02.03q0 .03.04.03l.1-.01h.08l.04-.02-.02-.04h-.21m.11.24-.03.03q0 .03.03.03.05 0 .09.02l.04.02q.03.02.05 0 .03-.01 0-.04l-.08-.05zm-.06-.13q-.04 0-.04.03t.03.03l.12.03.07.04h.05a.03.03 0 0 0 0-.05l-.1-.06zm-.13-.24-.03.03q0 .03.04.03h.19a.03.03 0 0 0-.01-.05l-.09-.02zm.3 1.18q-.03 0-.05.03t.02.04q.06 0 .1.03l.06.05q.01.03.04.01t.01-.04l-.08-.07zm-.02-.18q-.02-.01-.04.01 0 .03.02.05l.1.05.06.07q.01.02.04.01.03 0 .02-.04l-.09-.1zm0-.12q-.04 0-.05.02 0 .03.03.04l.1.03.05.04q.02.03.05.01v-.04l-.08-.07zm-.02-.16q-.04 0-.04.02t.03.04l.1.02q.03 0 .04.03t.05 0V184l-.08-.05zm-.06-.15-.02.04q0 .03.03.03l.1-.01h.04q.02.02.05 0a.03.03 0 0 0-.01-.05l-.09-.01z"/><path d="M461.54 188.84q0 .03.04.03.02 0 .02-.04-.02-.07-.11-.13l-.04-.02-.01-.02-.02-.02-.08-.14q-.02-.03-.05-.02-.03.02-.01.04l.1.16v.02h.01l.02.02.04.03q.07.05.09.09m-.3.23.04-.01V189l-.29-.13a1 1 0 0 0-.3-.03q-.05 0-.03.03.02.04.04.03l.27.03q.15.05.27.13m.48.25q.03-.01.01-.04l-.04-.02-.18.08c-.1.03-.13.02-.2.02h-.16l-.07-.03-.11-.04a.03.03 0 0 0-.03.04q0 .02.03.03l.08.02q.04.03.1.03l.16.01q.12 0 .21-.02zm.77.2h.05v-.05h-.01l-.05-.05-.11-.06h-.13q-.03 0-.03.04l.04.02h.1l.13.09z"/><path fill="#fff" fill-rule="evenodd" d="M462.94 191.31q-.09.06-.08-.04c0-.06.06-.07.09-.02q.03.03-.01.06m-.17-.12.02-.06q0-.06.05-.1h.15l.04.02.01.01-.06.04-.05.03-.06.02zm-.54-.63q0 .08.02.12h-.08q0-.08.06-.12m.13.04q-.03.04-.02.1v.06h.07l.02-.01q-.06-.07-.07-.15m.17.07.05-.02-.04-.04zm.12 0-.01-.04v-.05q0 .03.03.05l.02.02.01.01zm-.03-.4q0 .05-.03.05c-.02 0-.03-.05-.03-.05zm-.15-.01-.04.08-.04-.08z"/><path fill="#d00" fill-rule="evenodd" d="M461.24 190.94c-.08 0-.26.02-.29-.05q-.04-.07-.03-.16l.06-.14c0 .03-.03.23.06.18.06-.04.08-.27.15-.34.23-.23.55-.17.83-.12.13.03.36.02.42.12.04.05.09 0 .1-.03.04-.05.04.02.08.02s.03-.07.07-.04l.1.09c.02 0 0-.07.03-.07.05 0 .04.15 0 .15l-.34-.04c-.33-.03-.55-.1-.9-.02q-.35.1-.34.45"/><path fill="#fff" fill-rule="evenodd" d="m465.18 190.14-.02.07q.33.26.69 0 .18-.14.42 0-.03-.25-.19-.3c.42-.3.06-.47.06-.7l-.1.14.01.12c0 .09-.05.21 0 .3-.12-.07 0-.27-.05-.36-.11.1-.11.21-.1.38l-.2-.13q-.02.25.11.36c-.17.22-.38.23-.63.12m.2-2.13-.14-.1c-.6.77-.72 1.57-.34 2.1l.03-.11c-.19-.33-.16-.65-.07-1q.07.06.11.15.03-.44.17-.72.07.08.1.2.04-.33.14-.52m-1.43-1.86q-.23.3-.61.42c.12.06.25.07.42-.08q.22-.2.19-.34m-.36-2.44q.15.11.36.06 0-.1-.17-.2-.02.1-.19.14m-.31-.95q-.03.2.23.17.05-.1-.02-.2-.08.08-.21.03m1.68-.48-.04.27q-.19.03-.26-.08a.5.5 0 0 1 .3-.19m.39.3a.4.4 0 0 1-.05.27c.06.07.16.1.21.08.05-.19-.05-.28-.16-.35m-2.08 3.92a1.6 1.6 0 0 0-1.22-.27c-.25.06-.54.08-.74-.2-.1.18-.3.13-.46-.1-.08.1-.2.1-.25.02-.2-.26-.41-.24-.45.04-.28-.19-.01-.41.38-.35q-.07-.08-.25-.12a.5.5 0 0 1 .52 0q-.07-.12.08-.24-.48-.17.02-.52-.17.05-.21-.01t.1-.15c-.32-.01-.58-.2-.8-.44-.21-.22-.47-.4-.7-.18-.09.08-.07.23-.12.3q-.06.08-.15.08-.1-.34-.4-.35 0-.27.4-.12c-.17-.14-.2-.27.05-.38a.4.4 0 0 0-.35-.13c-.09.01-.17.08-.28.1-.2.04-.33-.26-.32-.55.09.08.18.2.25.23.03-.05-.01-.12-.03-.2q.15.1.23.19l.01-.14q.18.14.4.18c-.14-.13-.29-.24-.29-.4q.33.09.42-.2c.08.03.18.05 0 .23q.03.05.13.06.03.1-.03.2c.08-.08.15-.04.25 0-.14-.11-.15-.21-.09-.4.11.22.27.32.46.21.13.1-.03.24-.13.38q.1.01.2-.04-.01.12-.08.19c.14-.04.32-.18.34-.35q.02-.2.26-.23-.1.12-.04.27.06.08-.03.18a.5.5 0 0 0 .43-.34c.04.14-.07.33-.14.44.21-.1.41-.23.41-.45.16.15-.19.45-.01.6.04-.21.06-.36.28-.36-.06.13-.13.29-.03.4 0-.1.11-.29.21-.32 0 .17.02.24.07.34.02-.1.05-.26.15-.26q-.06.14-.07.26l.03.2-.02.14a1 1 0 0 0 .2-.23q.03.14.01.29c.1-.04.26-.26.26-.36q.12.05.05.19c-.05.1-.11.1-.05.25.05.11-.16.19-.17.24.27.18.41.02.44-.26.12.18.12.3-.1.45-.14.1-.3.38-.23.59.19.56 1.27.13 1.64.55-.36-.1-.85-.2-1.37-.16.47.08 1.15.07 1.31.31-.2-.07-.3-.15-.56-.14.06 0 .49.16.5.23-.3-.14-.62-.19-.94-.26a1 1 0 0 0-.4-.01c.27.09 1.03.13 1.33.4-.08 0-.16-.05-.25-.05.13.07.32.18.4.27-.56-.26-.93-.5-1.55-.47.12.02 1.2.26 1.35.51-.4-.2-.9-.36-1.26-.32.2 0 .9.12 1.12.5-.34-.2-.64-.47-1.16-.38.24-.02.96.18 1.04.42m-1.71-1.68a.03.03 0 0 0-.05 0v.04l.14.14.13.14h.05v-.04zm-.28.73h-.04v.04l.18.21q.01.03.04.01v-.04l-.08-.12zm.37-.8q-.02-.03-.04 0t0 .04l.18.18q.02.03.05 0v-.04l-.1-.1zm.12 1.15q.02.03.05.01t.01-.04l-.11-.17q-.02-.03-.05 0t0 .03zm.13-.05q.01.02.04 0v-.04l-.16-.18h-.05v.04l.09.09zm.03-.13h.05a.03.03 0 0 0 0-.05l-.16-.16h-.04a.03.03 0 0 0 0 .05zm-.27-.52q-.02-.02-.04 0v.04l.18.16.17.16h.04v-.05l-.17-.16zm-.12.04q-.02-.02-.04 0t0 .04l.16.2q.02.03.05.01v-.04zm-.12.04h-.04v.05l.25.23h.04v-.04zm-.12.06-.04.01v.04l.23.2q.03.03.05 0 .02-.04 0-.04zm.05.11a.03.03 0 0 0-.05 0 .03.03 0 0 0 0 .05l.1.1.1.1q.01.02.04 0v-.04l-.1-.1zm.08-.56h.05v-.04l-.08-.1-.1-.08h-.04a.03.03 0 0 0 0 .05zm0 .15h.05a.03.03 0 0 0 0-.05l-.25-.23q-.02-.03-.04 0v.04zm-.04.14q.02.02.05 0v-.04l-.2-.19h-.04a.03.03 0 0 0 0 .05zm-.08.07q.02.02.05 0v-.04l-.07-.08-.08-.08a.03.03 0 0 0-.05 0v.05l.08.07zm.47-.88-.04.01v.04l.11.08.1.09h.04a.03.03 0 0 0 0-.05zm-.07.12h-.04a.03.03 0 0 0 0 .05l.16.16h.05v-.04zm-.01.13a.03.03 0 0 0-.05 0v.04l.17.17h.05a.03.03 0 0 0 0-.05zm-.07.4a.03.03 0 0 0-.05.01.03.03 0 0 0 .01.05l.3.24h.05a.03.03 0 0 0 0-.05l-.15-.12zm-.17-.41h.05v-.04l-.05-.08-.07-.08h-.04a.03.03 0 0 0 0 .05zm-.03.15h.05a.03.03 0 0 0 0-.05l-.16-.14a.03.03 0 0 0-.05 0 .03.03 0 0 0 0 .05l.09.06zm.45-.39q.02.03.05.01v-.04q0-.03-.04-.06l-.05-.04q-.12-.1-.3-.02l-.02.04q0 .03.04.02.15-.06.25.01zm-.18-.25q.02 0 .03-.03.01-.04-.02-.03-.1-.01-.18.02a.4.4 0 0 0-.15.12v.04h.05l.12-.1zm-.17-.08q.03 0 .03-.04a.03.03 0 0 0-.04-.03q-.07 0-.14.05l-.14.08a.03.03 0 0 0 0 .05h.04l.13-.08zm-.11-.05q.02 0 .03-.04l-.03-.03q-.1 0-.19.06l-.08.05-.02.04q.02.02.05.01.04 0 .08-.04.09-.06.15-.05m-.41 0a.03.03 0 0 0 0 .05q0 .03.04 0l.03-.01q.12-.1.23-.15.03-.01.02-.04l-.04-.02-.25.15zm.11-.13q.03 0 .03-.04l-.04-.02-.13.05-.12.1v.04h.04l.12-.09zm-.13-.1q.03-.02.02-.05a.03.03 0 0 0-.05-.01l-.2.12a.03.03 0 0 0 0 .05h.04zm-.15-.04q.04 0 .04-.03a.03.03 0 0 0-.03-.04q-.1 0-.17.03l-.16.07q-.02.02-.01.05.02.04.04 0l.15-.06q.07-.03.14-.02m-.46-.05v.04q0 .03.04.01l.12-.06.12-.03q.02 0 .03-.03l-.03-.03q-.08 0-.14.03zm-.1-.04q-.03 0-.01.04.03.04.04.01l.2-.09q.04 0 .03-.04l-.04-.02-.11.04zm-.16-.06q-.03.02-.01.04t.04.02l.11-.06.1-.02q.04 0 .04-.03a.03.03 0 0 0-.04-.03l-.12.02zm-.12-.02v.04q.02.02.04 0l.1-.07.1-.04q.02 0 .02-.03a.03.03 0 0 0-.04-.03l-.11.05zm-.1-.08v.04q0 .03.04 0l.1-.05.09-.03.02-.04-.04-.02-.1.03zm1.26.95q.03.01.05-.01 0-.03-.02-.05l-.06-.03-.03-.04q-.02-.03-.05 0l-.01.02v.01l-.05-.02q-.07-.01-.1-.08 0-.03-.03-.02l-.03.03.03.09.02.07q0 .03.03.04.03 0 .03-.03v-.05l.03.01q.07.01.1.1l.04.02q.02 0 .03-.03v-.04zm-.47-.16q.03 0 .05-.02 0-.04-.02-.04l-.02-.01-.04-.02-.15-.15h-.04l-.02.03.02.04-.04-.02q-.1 0-.13-.07 0-.03-.04-.03-.04.01-.02.04l.05.1.04.06q0 .02.03.03t.03-.04v-.03h.02q.1.02.14.1 0 .03.04.02.02 0 .03-.03v-.01zm-1.9-.33q-.03 0-.04.03 0 .02.02.03l.11.01q.06 0 .1-.02.03 0 .03-.04l-.04-.02-.19.01m.15-.25a.03.03 0 1 0 .04.05l.02-.02.02-.02a.3.3 0 0 1 .17-.05q.04 0 .04-.04v-.01q.03 0 .04-.02l.05-.14a.03.03 0 0 0-.05-.03l-.06.15v.03h-.02a.4.4 0 0 0-.23.08zm.07-.33q-.03.02 0 .04t.04 0l.04-.03.05-.03a.03.03 0 0 0 0-.05h-.04q-.02 0-.05.03zm.12.13q0 .03.02.04.03 0 .04-.03l.05-.14q0-.03-.02-.05l-.04.01-.04.08zm.2.1q-.01.04.02.04t.04-.02l.02-.06.03-.05v-.04h-.05l-.04.06zm.16.08q0 .03.03.03t.03-.04l.01-.08q0-.03.04-.04.03-.02.01-.05h-.04l-.07.07zm.15.04a.03.03 0 1 0 .04.04l.05-.07.02-.1q0-.03-.03-.03-.04 0-.03.03l-.02.08q0 .02-.03.05"/><path fill="#fff" fill-rule="evenodd" d="M458.46 184.21c.22.02.33-.03.35-.07q.13.1.13.18c-.15.09-.36.12-.48-.11m-.75-1.02q.25.04.36-.02c.02.1.06.2.07.2-.16.04-.35.01-.43-.18m1.3-.8c-.02.07-.06.17-.04.29-.07.06-.15.1-.26.02.09-.35.22-.34.3-.31m.47.04q.11.16.06.38.15.08.23 0 .03-.33-.29-.38"/><path fill-rule="evenodd" d="M460.31 190.88c.06.27.19.49.23.6.4-.09.3.6-.06.4.27.3-.4.37-.3.03-.3.03-.3-.37 0-.38zm4.43.25.2.45c.2.03.23.35 0 .4-.03.2-.33.2-.36-.03a.17.17 0 0 1-.03-.34zm-6.86-2.76-.17.58c-.26.03-.24.34.05.39 0 .37.45.26.34-.03.27.07.3-.35-.03-.41zm6.58-.73.2.48c.3.05.28.35.04.38.05.26-.4.32-.38-.02-.26.04-.3-.28-.03-.31zm-6.55-3.66.21.55c.3.02.39.37.04.45-.06.32-.33.31-.44.06q-.4-.25.03-.4z"/><path fill="#fff" fill-rule="evenodd" d="M460.3 191.2c.04.18.12.33.15.4.28-.06.2.32-.04.18.17.34-.25.42-.17.04-.22.06-.25-.23.01-.19zm4.42.15.14.35c.2 0 .23.2-.04.16.12.23-.21.33-.15 0-.33.05-.2-.2-.09-.17zm-6.84-2.7-.12.4c-.24-.09-.17.23.1.22-.1.37.28.25.16-.06.19.05.25-.2 0-.19zm6.56-.68.12.29c.24-.04.24.23 0 .15.05.29-.2.41-.17 0-.3.1-.33-.23-.05-.13zm-6.58-3.63q.08.17.13.34c.21-.05.33.16 0 .16.14.39-.24.34-.2.07-.21.11-.28-.28 0-.18q.07-.2.07-.39"/><path fill-rule="evenodd" d="M466.11 185.45c.05.07.09.22.12.3.04.1 0 .12.1.17q.11.05.09.2c0 .04-.1.15-.18.1 0 0 0 .14-.03.17-.11.09-.3.02-.32-.13 0-.07-.08-.01-.15-.07q-.09-.09-.03-.21c.08-.13.2.02.26-.18 0-.03.1-.37.14-.35m-3.06-2.4c.03.1.15.48.2.58s.16.08.22.16c.06.1.1.23-.01.3-.03.03-.1 0-.12.03-.02.01.05.1-.04.21-.09.12-.36.1-.4-.06q.02-.11-.02-.13c-.3-.02-.22-.43-.02-.37.1.02.1-.27.11-.34 0-.02.03-.24.08-.38m-1.09-.82c.05.1.1.3.18.35.17.1.24.1.24.32 0 .14-.18.1-.19.18-.02.19-.1.3-.3.23-.11-.04-.12-.27-.16-.27-.27 0-.13-.44 0-.36.12.06.2-.43.23-.45m-2.56 2.25.23.5c.07.16.22.09.28.2.05.1.03.26-.07.3-.17.06-.14 0-.14.13 0 .2-.29.17-.35.04-.03-.07-.04-.07-.04-.14h-.12c-.23-.07-.22-.4.07-.36.07 0 .08-.55.14-.67"/><path fill="#fff" fill-rule="evenodd" d="M459.42 184.79c.02.14.09.26.09.41.1-.03.3.01.23.15l-.09.08a.3.3 0 0 1-.17-.04c.06.07.07.09.08.16q0 .06-.03.1c-.03.04-.11.07-.15.01a.2.2 0 0 1-.02-.21c-.09.05-.26.05-.26-.1q0-.16.15-.15.05 0 .07.02c0-.1.1-.45.1-.43m2.55-2.32c.02.06 0 .24.04.27.06.04.18.03.2.13q-.01.15-.16.1c-.1-.02-.02.01 0 .08.04.16-.16.2-.22.1-.02-.03 0-.1.02-.12.06-.06-.06-.03-.12-.04-.14-.03-.1-.31.04-.25.09.04.1 0 .13-.1zm1.06.97c.05.07.1.39.12.38.06-.06.16.03.18.08.03.07.02.18-.08.16-.07-.03-.14-.06-.1 0 .04.08.04.24-.05.25-.15.02-.2-.13-.1-.26q-.08.03-.12.01-.09 0-.1-.08-.04-.09.04-.13c.09-.04.15.06.18-.05zm3.04 2.23.07.28c.02.07.12-.04.12.11q-.02.12-.17.07c-.03 0 .05.06.05.12 0 .04-.03.11-.08.11q-.16 0-.1-.19c.03-.1-.04 0-.1 0-.12 0-.14-.2-.01-.2l.08.01.06-.16z"/><path fill="#ffce00" fill-rule="evenodd" d="m474.22 179.37-.15.01q.06.2.16.39l.18.25c.04.09.02.2.04.28.04.14.1.27.05.4-.09.22.18.4.25.56.1.23.11.4-.18.38.44.44.71-.24.49-.44s-.41-.46-.4-.66c.13.28.3.46.42.56.13.1.3.13.44.2.17.1.07.32.05.42.22-.14.09-.46 0-.6q.08-.04.15.03c-.02-.14-.16-.28-.24-.38.05-.02.17.03.19.06q-.04-.25-.22-.44l-.22-.13q.14-.1.37.05c-.08-.2-.23-.19-.43-.26a1 1 0 0 1 .47 0 .4.4 0 0 0-.3-.12l-.31.04c-.17.02-.22-.05-.3-.05-.05 0-.1-.06-.14-.06-.03 0-.06.06-.08.05q-.11-.08-.16-.2s-.16-.34-.13-.34m.94 1.67q.04.02.06 0v-.07a1 1 0 0 1-.2-.27q-.07-.16-.1-.36a.05.05 0 0 0-.1.02q.04.2.12.38.07.16.22.3m-.94-2.85h-.2c-.32.23-.55.53-.27.86q.15.19.47.19c.21 0 .44-.12.66-.15.13-.01.24.05.36.05-.39-.42-.83-.13-1.1-.14-.06 0-.26 0-.27-.18-.02-.32.27-.2.35-.63m-.5.71q.02.03.06.03l.02-.06a.3.3 0 0 1 0-.2q0-.05-.04-.06-.06-.01-.05.03a.4.4 0 0 0 0 .26m.68.24q.05 0 .04-.05l-.05-.04q-.11.02-.22.01l-.24-.03q-.04 0-.05.03 0 .04.03.06a1 1 0 0 0 .5.02"/><path fill="#ffce00" fill-rule="evenodd" d="M474.04 178.61q-.16.08-.06.25c.06.11.17.06.28.06a.3.3 0 0 1-.04-.16q-.01-.12.03-.23c-.13.06-.1.2-.08.34 0 .05-.03.02-.05 0q-.06-.06-.07-.14v-.06zm1.19-.5c-.28-.23-.56-.17-.8-.11q-.05 0 0-.07c.01-.03-.17 0-.2 0-.2.02-.34-.06-.35-.04-.01.1.2.1.22.11q.04.05 0 .07-.35-.05-.46-.29l-.03-.06c0-.02.05.01.07-.01s.02-.11.02-.14v-.12c-.03-.03-.06.01-.05-.02q.04-.06.13-.13c.3-.23.55-.18.74-.35a.6.6 0 0 1-.57.47c-.07 0-.1.14-.07.25.03.13.22.18.29.18.37-.04.84-.15 1.06.26"/><path fill="#ffce00" d="M474.59 177.14v-.04q-.04-.01-.04.02l-.1.17q-.08.23-.12.45 0 .03.03.04.03 0 .04-.03.04-.2.13-.42zm-.41.61q0 .05.04.05t.05-.04l.04-.35q-.05 0-.06.03v.04c-.04.1-.05.15-.07.27m.42-1.16q0 .03.03.04.02 0 .03-.03c.1-.58.1-.9-.16-1.25-.22-.25-.61-.39-1.1-.25l-.02.04q0 .03.03.03.74-.1 1.02.28c.2.23.27.58.17 1.14"/><path fill="#ffce00" d="M474.44 176.6q0 .03.03.04.03 0 .04-.03l.04-.18.05-.18q0-.03-.02-.05-.04 0-.05.02l-.06.18z"/><path fill="#ffce00" fill-rule="evenodd" d="M468.28 174.71c.23.21.27.37.4.55.12.17.24.16.46.16 0 .14.43.42.6.33q.05-.02.13-.01c.07 0 .11.07.22.12.18.08.43.1.55 0s.42-.08.63-.04c.09.01.42.04.58-.08l-.5.02c-.16 0-.47-.02-.54-.17.3.07.71.05.96.01-.21-.03-.92.03-.97-.13q.4.02.76-.01l-.84-.08c-.11-.11.3-.07.35-.07q.23-.01.42-.07h-.45l-.4-.01q-.1-.01-.17-.08c-.03-.05.15-.03.18-.03.24 0 .6.03.8-.04-.27 0-.85.07-1.03-.16.17 0 .34.11.5.11.19 0 .33.01.5-.06h-.29c-.22 0-.55 0-.7-.25.41.2.45.16.76.16.05 0 .25 0 .37-.1q-.25.05-.54.03c-.36-.02-.62-.16-.63-.37 0-.23.24-.4.33-.58q-.07.03-.1-.05c0-.02.04-.05.04-.12-.2.02-.09-.21-.09-.35s.16-.17.16-.32q-.04.06-.1.11c-.01.03-.06.09-.09.08 0 0-.02-.1-.1-.12q.04.04 0 .08c-.1.1-.08-.22-.2-.31 0 .07-.01.2-.05.22-.1.05-.08-.1-.09-.14a.4.4 0 0 0-.16-.24c.01.04.05.17 0 .19-.07.01-.06-.06-.07-.1s-.14-.26-.2-.28q0 .06-.03.08c-.06 0-.04-.1-.04-.14q-.01-.1-.1-.13.03.11.01.16c-.03.06-.1-.1-.11-.14q-.05-.09-.04-.23c-.08.01-.12.12-.13.19l.01.2c0 .12-.08.1-.07.2.01.13.12.04.2.1l.4.24c.1.06.12.12.17.22.04-.06.02-.16.05-.16s.06.13.06.22c.1-.12.25.05.25.1 0 .04 0 .1-.07.06l-.07-.07c-.06-.02-.12 0-.2-.09q0 .1-.02.11c-.1.03-.08-.1-.07-.15-.05.02-.04.07-.08.07-.03 0-.03-.08-.04-.1-.02-.06-.1-.2-.16-.2 0 .03 0 .12-.06.15 0-.06 0-.16-.1-.2q.03.08-.02.15c-.06-.15-.17-.3-.25-.3 0 .03 0 .1-.02.11-.04.04-.02-.1-.13-.12-.03.11-.1.02-.13-.02q-.05-.05-.14-.07c-.08-.03-.2-.05-.2-.1-.01-.06.05-.04.13-.04s.1.04.13.04l.13-.01c.02-.14.15-.13.1-.3-.16.09-.29 0-.32-.05-.07.01-.05.08-.1.08q-.06.02-.13-.02c-.05-.06-.04-.13-.07-.17s-.1-.02-.13-.02c-.04 0-.05-.07 0-.1.1-.04.2-.14.11-.21-.16.17-.37.06-.45-.03-.15.17.04.34.07.52q.03.12-.05.2c-.09.12-.13.04-.1-.04l.04-.11c.01-.14-.08-.02-.15-.02q-.1-.02-.14-.1c-.05-.09-.11-.1-.17-.16-.02-.03-.08-.17-.15-.16.05.2-.08.36-.3.32 0 .13.19.18.25.23.1.05.22.14.23.2.01.16-.27-.12-.29.07l-.03.15c0 .05-.08.1-.07.16.1-.02.23.14.23.22.04 0 .2-.12.16-.22-.03-.07-.07-.16-.03-.17.08-.01.07.09.1.1.06 0 .08-.08.08-.11q0-.07.04-.07c.07 0 .12.1.27.21a1 1 0 0 0 .39.14q.06 0 .08-.02c.03-.02 0-.07.04-.09.06-.02.13.08.12.17q-.02.05-.08-.01-.03-.03-.03 0c.03.08.12.25.33.39.29.18.5.13.5.22s-.16.12-.17.2c-.02.2.04.16.04.36 0 .15-.14.27-.11.56-.1 0-.16-.08-.22-.15q-.08-.14-.23-.15c.09.1.07.2.14.3.06.09.17.13.23.16.08.03.15.17 0 .12-.4-.16-.44-.55-.68-.53m1.96-1.16q-.03 0-.04.03 0 .04.03.03l.08.02.04.06q0 .03.04.02.05 0 .02-.04l-.07-.1zm-.12.1a.03.03 0 0 0-.03.04q0 .03.03.03.06 0 .1.02t.1.09q0 .02.04 0v-.04l-.1-.1a.2.2 0 0 0-.14-.03m0 .12q-.04 0-.04.03 0 .04.03.03.05 0 .09.02l.07.06h.04v-.04a.2.2 0 0 0-.2-.1m-.03.1q-.03 0-.04.03 0 .03.03.04l.03.01.03.01q.08.03.11.1.02.02.05 0v-.04a.3.3 0 0 0-.13-.12l-.04-.01zm-.05.16a.03.03 0 0 0 0 .06q.07 0 .12.02t.09.1q0 .02.04.01.04-.02.01-.04-.03-.09-.1-.12c-.08-.03-.1-.04-.16-.03m0 .15-.02.03q0 .03.03.03.08 0 .13.02.06.04.1.11.01.03.04.02.03-.02.02-.05a.3.3 0 0 0-.13-.13.3.3 0 0 0-.17-.03m-.03.16-.03.02q0 .04.02.04h.04l.03.01q.09.02.18.08l.04-.02-.01-.04-.2-.08h-.03zm.03.1-.03.03q0 .03.03.03.08 0 .14.04l.13.1h.05a.03.03 0 0 0 0-.05l-.15-.1zm0 .18q-.03 0-.03.04t.03.03l.13.02q.06.02.11.08.03.02.05 0t0-.04l-.14-.1zm.05.11q-.03 0-.04.03-.01.04.02.04.08 0 .14.05.08.06.1.1.03.03.05.01v-.04l-.12-.13zm.23.38.05-.01q0-.03-.02-.05l-.04-.04-.05-.07-.04-.02-.02.04v.08l-.01-.02-.11-.05a.03.03 0 0 0-.04.05h-.01l-.04.01-.01.03v-.03l-.04-.02-.03.03.03.09.06.08h.04a.03.03 0 0 0 0-.05l-.01-.01q.02-.02.01-.04v-.01l.03.03.1.1.04-.02q.02-.02-.01-.04l-.08-.08-.06-.06.09.05q.04.02.07.07l.03.02q.03 0 .03-.03v-.07q0 .03.04.04m-.9-.53h-.04a.03.03 0 0 0 0 .05 1 1 0 0 1 .28.3q.02.03.05 0v-.04l-.03-.04v-.02l-.1-.22-.16-.18a.03.03 0 1 0-.04.05 1 1 0 0 1 .2.23zm.05-.28-.04.02.02.04.07.04.05.06q.07.08.09.17t.1.19l.13.08q.03.01.04-.01t-.02-.05l-.06-.03-.05-.04q-.06-.06-.08-.16l-.06-.15h.03q.02 0 .01-.04l-.08-.11-.1-.1q-.03-.03-.05 0-.02.04 0 .04l.1.1.07.09-.02-.02-.06-.07zm.14-.2-.05.01a.03.03 0 0 0 0 .05l.2.2q0 .03.04 0v-.04zm.08-.15a.03.03 0 0 0-.05 0 .03.03 0 0 0 0 .05l.08.07.03.07q0 .03.04.03.03 0 .03-.04l-.05-.1zm.14.59-.04-.02-.03.03.05.14q.03.06.1.1l.04-.01v-.04l-.08-.09zm.06-.12q0-.03-.03-.03l-.03.03.01.12.04.1q.02.03.05.01.02-.01 0-.04l-.02-.08zm-.65-1.15q0-.03-.02-.04-.03 0-.04.03a.2.2 0 0 0 .01.14.2.2 0 0 0 .12.1l.04-.02-.02-.04q-.06-.03-.08-.07zm-.15.01q0-.03-.02-.04t-.04.01q-.02.04-.01.08l-.02-.03-.02-.07a.03.03 0 0 0-.04-.03.03.03 0 0 0-.03.04l.03.1.1.09h.03l.03.04h.05a.03.03 0 0 0 0-.05l-.06-.08zm-.27-.1a.03.03 0 0 0-.04-.04l-.02.04q0 .05.03.1l.06.1h.05a.03.03 0 0 0 0-.05l-.05-.08zm-.47-.35q.01-.03-.01-.04l-.04.01-.03.1.01.08a.03.03 0 1 0 .07-.02l-.01-.07zm-.16-.03q.01-.04-.01-.04-.04-.01-.04.01l-.03.08.01.1.04.01q.03 0 .02-.03v-.08zm-.01-.32a.03.03 0 0 0-.04-.03.03.03 0 0 0-.03.04q0 .05-.03.1l-.13.1a.03.03 0 0 0-.01.05q.01.02.04 0l.15-.11q.06-.08.05-.15"/><path fill="#fff" fill-rule="evenodd" d="M472.01 180.76q.1-.1.22-.1-.05-.06-.15-.03-.08.05-.07.13m0 .04c.04.01.12.02.14 0l.01.01q0 .04-.02.07-.08.05-.11-.01-.02-.03-.01-.07m-.84-.49c.01 0 .08-.06.1-.06q.03.07 0 .13c-.03 0-.1-.04-.1-.06m.2.07q.05.03.12.02c0-.04.01-.18-.06-.18 0 .03-.04.13-.07.16m.24-.04.11-.06c0-.03-.03-.12-.05-.12a.3.3 0 0 0-.06.18m.2-.06q.08 0 .12-.03c-.01-.03-.11-.06-.13-.06zm-.31-.39q0 .05.04.07.05-.01.05-.07zm.24.1a.1.1 0 0 1-.06-.1h.11c0 .02-.03.09-.05.1m.17.01q-.04-.03-.05-.08h.11c0 .05-.05.07-.06.08"/><path fill="#d00" fill-rule="evenodd" d="m471.96 180.14-.3-.02-.75.03c-.22 0-.64.13-.78.26-.1.1-.15.2-.22.21-.08.02-.13-.07-.04-.17.2-.26.62-.46 1.28-.39h.4l.4.02c.11 0 .1.06.01.06m-.08 1.08h1.08v-.07h-1.08zm-.2.04h1.35l.07.12q.05.09.14.13c.09.06.23.08.13.22-.06.08-.28-.1-.4-.1-.18 0-.07-.12-.07-.21-.03-.02-.2 0-.3 0 0 .08.14.11.14.16-.02.11-.08.07-.18.04-.15-.05.03.2-.1.2-.27 0-.14-.12-.18-.19-.02-.05-.13.08-.23-.01-.04-.04-.03-.23.1-.17.25.1.12-.13-.09-.11-.13.01-.15.13-.22.2-.06.07-.1-.08-.17 0s-.07.27-.22.13c-.07-.06-.08-.13.06-.23q.1-.07.18-.18m-2.87.33q.02-.18-.06-.26a.2.2 0 0 1 .13-.1c.15.13.1.37-.07.36m-1.14-1.55q.09-.1.18-.11.02-.14-.1-.18-.14.15-.08.3m-.71.06a.4.4 0 0 0 .26.13q0 .16-.12.22-.21-.1-.14-.35m.1 1.36q.17.01.26-.12.14.03.14.2-.22.12-.4-.08m.12-4.36c.14.11.27.16.37.04q0-.1-.09-.15c-.04.09-.16.1-.28.1m-.27-.98a.4.4 0 0 0 .25.33q.1-.14.03-.29c-.1.05-.19 0-.28-.04m1.05-.83q-.13.08-.12.34.14.02.17-.1-.07-.06-.05-.24m.69.34q.09.06.1.2.15.02.22-.07c-.12-.14-.22-.15-.32-.13m.1-3.76q.21.12.23.4-.12.06-.24-.05a.5.5 0 0 0 .01-.35m-.46-.33a.5.5 0 0 0-.05.3q-.11.03-.23-.07c.01-.15.14-.2.28-.23m-1.32.25q.06.15.22.23 0 .12-.14.18c-.14-.13-.13-.28-.08-.4m-.17 1.49c.13 0 .24 0 .3-.09q.07.05.1.12-.26.16-.4-.03m3.08-1.09q.27 0 .4-.16.05-.01.07.2c-.18.16-.33.1-.47-.04m.15-1.1q.15.05.3 0 .02.14-.09.2a.5.5 0 0 1-.2-.2m1.5-.27q-.13.07-.15.25-.12-.01-.17-.12.13-.2.33-.13m.4.34a.5.5 0 0 1-.1.3q0 .09.12.12.17-.26-.02-.42"/><path fill="#ffce00" fill-rule="evenodd" d="M475.22 176.98c-.18-.23-.34-.28-.78-.28-.27 0-.49-.26-.23-.4.12-.07.3-.1.33-.2.08-.28-.1-.51-.21-.64-.32-.32-.62-.28-1.06-.18-.07-.31-.54-.55-.54-.74 0-.1-.07-.24-.15-.27-.18-.07.02-.07.11-.06.19.01.22 0 .32-.14.05-.07.08-.2.17-.11.12.12.33-.04.39-.07.26-.14.55.07.64.17.05-.34-.42-.42-.66-.42.17-.09.28-.09.47-.07-.01-.12-.17-.1-.28-.1-.17 0-.38 0-.46-.1-.02-.04-.04-.03-.05-.08-.02-.16.29-.08.38-.06-.04-.17-.29-.15-.42-.15.05-.15.1-.19.13-.36-.06.06-.12.16-.23.16a.6.6 0 0 0 0-.51q0 .13-.12.17c0-.07.02-.43-.08-.46 0 .1 0 .25-.14.29a1 1 0 0 0-.06-.4q0 .1-.06.14-.05-.04-.04-.13a.2.2 0 0 0-.17.2c-.12-.11-.04-.38.13-.44-.2-.11-.24.16-.4.16-.1 0-.22.01-.22-.1 0-.09.15-.03.15-.13-.12.01-.29-.06-.32-.2-.05.08-.01.17-.1.24q-.03.05-.1.05c-.06 0-.09-.07-.05-.1q.08-.1.02-.14c0 .04-.09.1-.12.03l.01-.1c.02-.07.24-.17.21-.29-.25.07-.36-.04-.44-.1a.2.2 0 0 0-.08.19c.02.06.04.05.04.12q-.01.04-.05.06c-.05.01-.12-.06-.13-.1l-.04-.18q-.09.03-.16.03h-.1l-.1-.1-.06-.01h-.07c.05.13-.07.32-.22.36q.07.1.21.08c.09 0 .12-.02.17.04.02.03.1.08.13.1.02 0 .23.02.15.1-.05.07-.12.01-.17-.02-.08-.03-.28-.01-.32.05-.04.05-.2.13-.2.15.28 0 .26.15.22.35.17.05.22-.08.29-.2q.09-.16.3-.18c.04.23.14.45.33.56.23.14.17.32.22.43q.08.15.22.28c.14.2-.05.24-.03.43 0 .05.08.2-.04.16q-.07-.02-.15-.15c-.06.25-.09.24-.26.38-.13.1-.1.31-.02.47.13.24.3.17.43.33.06.06.08.18.1.27q.06.16.14.3c.11.17.25.23.25.46v.24q.01.1-.05.1c-.08.01 0-.11-.06-.2q-.26.15-.58.23a1 1 0 0 0-.53.33q-.04-.14.01-.28-.1.05-.15.23c-.08-.1-.09-.14-.09-.27-.07.1-.06.12-.06.23q-.05-.07-.13-.08.02.08-.04.11c-.06-.05-.1-.19-.19-.19 0 .07 0 .21-.1.24q0-.29-.17-.32c.06.12 0 .28-.09.3-.05-.07.04-.28-.12-.41.04.07.04.22-.06.26a1 1 0 0 0-.1-.27c0-.03-.1-.1-.12-.1.04.08.08.33-.05.37-.01-.07.03-.43-.26-.48.07.11.17.32-.07.4-.1 0-.11-.12-.1-.2.02-.07.02-.19-.04-.22-.15.13-.3.1-.37.03q-.06.1-.02.2.03.04.08.07c.05 0 .05.06 0 .08q-.1.07-.18 0c-.04-.01-.02-.06.05-.06-.01-.05-.1-.09-.15-.15-.2-.25-.07-.49-.28-.55 0 .24-.18.25-.37.25q.05.1.14.15c.11.06.23-.02.24.23.01.12-.23.09-.33.06l-.1-.07c-.05-.03-.12.08-.21.08-.1 0-.12-.11-.32-.08.14.1.12.36 0 .4.08.1.18.07.35 0 .07-.02.31-.07.38-.04.05.03.12.1.03.13-.05.01-.14-.03-.2 0l-.15.12c-.06.07-.19.1-.26.15.2.03.27.17.28.3.17 0 .18-.23.28-.3s.35-.24.47-.13q.22.22.46.34c.18.08.34.1.5.22.13.1.3.31.47.42.11.07.29-.04.53.07a.2.2 0 0 0-.15-.13c-.16-.03-.33-.07-.33-.36.17.08.37.16.54.03l.26-.05c.08 0 .18.1.25.19.04-.13-.08-.27 0-.27s.26.25.26.41c-.01 0-.11-.14-.17-.17.03.05.04.21-.02.3-.04-.12-.17-.25-.2-.3-.11-.11-.29-.1-.4-.03-.13.08-.28.04-.41 0 .02.15.16.12.3.19.2.1.26.3.27.42-.11-.2-.35-.21-.57-.21-.13 0-.22.03-.37 0a.6.6 0 0 1-.35-.16c.1.27.4.37.62.35s.63.07.68.3c-.3-.22-.34-.16-.72-.18a.8.8 0 0 1-.59-.32c-.17-.22-.4-.33-.65-.18-.17.1-.56.17-.7-.14q-.09.44.3.47c.18 0 .4-.1.61-.1s.41.05.48.15c.16.3.16.45.61.62q.13.03.3.1c.15.05.26.14.5.15-.1.14-.35.02-.43-.04-.35-.24-.6.3-.88-.01-.07-.09-.1-.24-.02-.31.02-.02 0 .09.05.17.01-.05.05-.14.07-.13s-.02.16.07.25c0-.15.06-.18.06-.2-.14-.1-.36-.42-.44-.58-.06.13.01.18.01.25q-.01.06-.05.07c-.1 0 .03-.14-.25-.22.1.12.07.3.01.35-.05.05-.06-.02-.07-.07q0-.05-.08-.1c.03.1.01.47-.1.57 0-.22-.08-.27-.16-.31.05.1.05.16.04.27q-.02.07-.08.13c-.02.05.05.31-.08.25q-.13-.06-.18-.22c-.05.31.13.34.13.5-.08.01-.15.03-.28-.16-.02.13.1.28.25.38-.11.16-.21.07-.27.03a.2.2 0 0 0-.18-.01.4.4 0 0 1 .1.18c.02.07.02.23-.06.26.08 0 .2-.01.2.08 0 .03-.06.07-.06.11 0 .07.02.15-.09.13q-.05.01-.05-.1c-.04.04-.03.1-.1.05-.05-.02-.04-.13-.1-.13q0 .1-.1.06l-.04-.09a.4.4 0 0 0-.1-.17c-.03-.03-.15-.02-.18.05.1.12.02.42-.16.42.01.12.24.05.37.05.1 0 .18.14.36.14q.08.01.06.07c-.02.04-.1.08-.12.09-.03.01-.14.07 0 .03v.06q.01.07-.02.1-.09.09-.1-.02c0-.03.04-.1.02-.11-.01-.02-.09.04-.11.07 0 0-.05.07-.06.12-.01.02-.1.05-.13.1.16.1.2.2.23.32.16.02.24-.08.26-.2.04-.13.3-.1.38-.35.04-.14.24.11.25.16.02.08.02.2.13.2q.09-.2.28-.22c0-.14-.1-.12-.17-.19a1 1 0 0 1-.17-.24c0-.07.08-.1.11-.18.36-.73.56-.72 1-.96.09-.04.26-.15.3-.24.2-.44.07-.07.5-.07q.4 0 .7-.12c.03.1-.08.28-.18.23q-.08-.05-.2-.06l-.1.01q-.03.04-.1.06c.09.04.1 0 .16 0 .13 0 .19.08.29.09.19.01.17-.07.38-.07q.26.01.26.25-.01.06-.07.01c-.06-.03-.12-.1-.19-.06q-.15.06-.1.2c.27 0 .46-.01.73.03.21.04.18.16.1.3-.08.16-.02.32-.26.25-.27-.08-.33.22-.6.08-.28-.16-.17-.04-.28.15-.03.07-.17.22-.03.27.1.03.18-.03.24-.06s.32.03.41.03c.12 0 .23.1.25.18.23.05.5-.02.72.03q.18.02.36 0c.05-.04.1-.04.12-.1l.01-.13c.01-.24.14-.14.1-.03-.1.18.27.23.1-.09q-.08-.15-.15-.16c-.05 0-.08.08-.14.16-.02.03-.1.07-.05.1.07.06.02.21-.06.05-.05-.09-.15-.11-.24-.16-.03-.02-.03-.08.02-.08.03 0 .24.1.24.05.01-.06-.08-.11-.08-.17q.08 0 .15.07-.04-.21-.34-.23c.23-.16.36.07.46.17.01-.13-.04-.2-.19-.3q.12-.02.23.12l.07.12q.05.06.1.09c.04.05.07.1.12.25.08-.1.46-.11.6.05-.01-.25-.31-.44-.52-.31a.4.4 0 0 1 .4-.31c-.02-.18-.34-.2-.44-.12 0-.19.14-.45.4-.4.02-.2-.2-.38-.37-.33 0-.24-.12-.36-.12-.53 0-.15-.08-.36.23-.53-.24-.09-.34.03-.43.21-.06.1-.04.2-.09.28l-.09.1-.04.08c-.08.08-.08-.13-.11-.18-.06-.07-.03-.15.01-.15q.11.01.1.13.1-.06.1-.25c0-.16-.16-.26-.16-.45 0-.22.01-.3.15-.5-.34 0-.37.41-.31.56-.26-.07-.16-.6-.1-.77-.3.18-.18.54-.12.77-.3-.13-.2-.7-.14-.88-.29.12-.13.76-.03.93q-.31-.14-.18-.85c-.23.18-.2.27-.18.52-.25-.08-.06-.45.05-.58-.26.03-.34.28-.41.49q-.1-.02-.13-.11c-.03-.07-.01-.22-.02-.34 0-.13 0-.28-.03-.35l-.06.15-.02.2v.01q0 .03-.03.04a.03.03 0 0 1-.04-.03v-.09l-.01-.07q-.03.02-.05.07v.02l-.04.02a.03.03 0 0 1-.03-.04q0-.06.04-.12l.01-.03-.15.02h-.02l-.02-.03.05-.13.08-.12a.03.03 0 0 1 .05 0v.04l-.1.17h.2c.07 0 .06-.07.1-.15q.03-.03.05 0c.09.06.09.24.09.42q0 .16.03.23.01.03.05.01c.05-.32.36-.45.68-.4.11-.9.5-.27.85-1.26.06-.19.14-.41.21-.48.1-.1.45-.13.63-.08q.45.11.36.54c-.05.29-.79.24-.48.8.19.36.73.02 1.33.28m-3.57 3.73a.03.03 0 0 0-.05-.02.03.03 0 0 0-.01.05l.01.03v.04q0 .03.02.04.03 0 .04-.02zm-.14.03-.04-.02a.03.03 0 0 0-.03.04l.01.03v.02q0 .03.03.04.02 0 .03-.03zm-.1-.03q-.02-.03-.05-.02t-.02.04v.07q0 .04.03.04t.04-.02zm.5.2c.16.1.3.1.43-.14.08-.08.15-.06.22-.05q.01-.18-.1-.23c-.04-.03-.09.03-.05.07q.05.03.07.09l-.15.01q-.07-.19-.29-.12-.14.12-.13.37m.46-1.02h-.04a.03.03 0 0 0 0 .05l.01.01-.02.05v.04l-.04-.02-.04.01q-.01.03.01.05l.04.01v.02l.03.07h-.1l-.03.03q0 .02.03.03l.2-.02q.03 0 .03-.04-.01-.04-.04-.02h-.01v-.04q.05 0 .08-.02t.01-.05-.04 0h-.02v-.02l.02-.02q.08.01.14-.06l.06-.08.06-.07q.02-.02.05 0 .02.03.05.01.03-.03 0-.05-.08-.08-.15 0l-.06.07-.06.08q-.06.08-.17-.02m-.23.39-.03.03q0 .03.04.03h.1l.07.02q.03.01.04-.01t-.01-.05l-.1-.02zm.2.55a.03.03 0 0 0-.02.05q.01.02.04 0l.07-.02.07-.02q.03 0 .02-.04l-.03-.02zm.03.11-.02.04q.01.03.04.02l.19-.04q.03 0 .03-.03a.03.03 0 0 0-.04-.03zm.7-.88q-.02 0-.03.02t.02.04q.08.03.12.07l.09.14.05.13v-.27a.4.4 0 0 0-.23-.27l-.05.01q0 .03.02.05.15.06.19.2a.4.4 0 0 0-.17-.12m0-.3-.04.03.02.04q.09.03.15.09.07.07.12.15l.05.1v-.1a.5.5 0 0 0-.05-.3v-.02a.3.3 0 0 0-.05-.32l-.12-.1v-.02a.4.4 0 0 0-.12-.22l-.08-.04q-.03 0-.04.02 0 .03.02.04l.03.01.03.02q.06.05.09.15l-.07-.03q-.05-.01-.05.02t.02.04q.15.05.24.15.07.09.04.21l-.19-.14q-.02-.01-.04.01l.01.04q.17.09.23.21l.04.15-.06-.08a.4.4 0 0 0-.18-.1m-.2-.15q.02.03.04.01l.01-.04-.02-.03q-.1-.1-.2-.08-.13.02-.19.05 0-.08-.02-.14-.05-.14-.17-.21l-.14-.1a.3.3 0 0 1-.07-.16v-.15l-.07.08-.02.03-.04.19c0 .12.01.18.09.27l.03.03q.08.1.01.2-.03.04-.05 0-.06-.04-.09-.1l-.01-.03c-.03-.06-.06-.03-.1-.09l.03.12v.09l-.03.03-.02-.02-.04-.13q-.01-.09-.12-.16-.05-.06-.12-.04l-.04.04q0 .03.02.04c.07.02.02-.05.1.01q.09.06.1.11 0 .07.04.15.01.04.04.05.04.03.07 0 .03 0 .06-.05l.01-.03.05.07q.08.07.15 0c.09-.1.05-.2 0-.3-.1-.1-.12-.07-.12-.26l.02-.1a.4.4 0 0 0 .1.18l.12.08q.09.08.13.2c.04.14.01.21-.06.3q-.04.05-.03.1.04.01.07-.05l.12-.13.03-.03q.07-.05.16-.06t.15.04zm-.25-.54q0 .03.04.03.03 0 .03-.04a.4.4 0 0 0-.1-.2l-.18-.13-.04.02.01.04q.1.05.17.11.07.07.07.17m0-.35q0 .03.04.03.03-.01.02-.04l-.06-.1-.09-.03-.04.02q0 .03.03.04l.07.03zm-3.6 1.05h.02q.03-.03.05-.09l.01-.12q0-.03-.03-.03-.04 0-.03.03l-.01.1-.01.03v-.1a.03.03 0 0 0-.04-.03l-.03.03v.2q0 .03.03.03t.03-.03zm.24-.25q0 .03.03.04.03 0 .03-.03v-.17a.03.03 0 0 0-.04-.03l-.02.04zm-.1.09q0 .02.02.03t.04-.03v-.16q0-.02-.04-.03-.05 0-.03.04v.15m-1.04.83q0 .04.04.03.03 0 .03-.03v-.13a.03.03 0 0 0-.04-.03l-.03.03zm.1-.02q0 .02.03.03.04 0 .03-.03v-.1q0-.03-.03-.03-.04 0-.03.03zm.25.15q0 .03.04.04.05 0 .03-.04v-.15q0-.03-.03-.03-.04 0-.04.03zm.18-.27.03.03q.03 0 .04-.04l-.01-.13-.03-.03-.03.03zm-.21-.43q0 .03.04.02.03 0 .02-.04l-.03-.1.01-.11q0-.03-.03-.04-.04-.02-.03.03v.12zm.14-.06h.05a.03.03 0 0 0 0-.05.2.2 0 0 1-.07-.12q0-.06.04-.14 0 .06.03.1.02.03.05.02.03-.02.01-.05a.4.4 0 0 1-.04-.18l.02-.12.05.12q.02.03.04.01t.01-.05a.2.2 0 0 1-.04-.14q0-.08.05-.15.01-.03-.01-.04t-.05.01l-.05.15q-.02 0-.03.02a.4.4 0 0 0-.05.24q-.03 0-.04.02a.3.3 0 0 0-.05.19q0 .09.08.16m.24-.55q.02.03.05.02.02-.01.01-.04l-.02-.1q-.01-.1.02-.2l.05.17v.01a.4.4 0 0 0 .01.3q.01.02.04.01.03 0 .02-.04l-.03-.13.03-.12-.01-.04v-.02l-.02-.04-.02-.04a.4.4 0 0 1 .01-.23l-.02-.04q-.03 0-.04.03l-.02.1q-.04-.01-.04.01a.5.5 0 0 0-.03.33zm.18-.28q0 .03.04.03.04-.01.02-.05a.3.3 0 0 1 .01-.23l.04.12q.02.02.04 0 .03 0 .02-.04a.3.3 0 0 1-.04-.15l.03-.1q0 .05.03.08t.05.01q.02-.01 0-.04l-.03-.12q0-.06.06-.1v-.04h-.04a.2.2 0 0 0-.08.11l-.03.02-.05.16-.03.01-.06.16q0 .1.02.17m.02.4q.02.03.05.02.02 0 .01-.04l-.02-.11.02-.11q.01-.03-.02-.05l-.04.02-.02.14zm.11-.21q.02.02.05.01t.01-.04v-.02l-.01-.02v-.08q0-.03-.02-.04-.04-.01-.04.02v.14zm1.65-.18a.03.03 0 0 0 0-.05h-.04a.3.3 0 0 1-.18.04.4.4 0 0 1-.18-.1.03.03 0 0 0-.05 0 .03.03 0 0 0 0 .05q.12.1.22.11.1.02.23-.05m-1.15-.79a.03.03 0 0 0-.05 0v.04q.06.09.14.14.07.06.17.07.03 0 .04-.03 0-.04-.03-.04a.3.3 0 0 1-.15-.05zm.48.23q-.03 0-.03.04.01.05.04.02c.14-.04.22.03.3.1q.07.06.16.1.12.04.24.02c.13 0 .27 0 .33.13q.01.03.04.02.03-.02.02-.05c-.08-.17-.24-.17-.4-.16l-.2-.02q-.08-.03-.15-.09c-.09-.08-.18-.16-.35-.1m1.32.17q0 .03.04.02.03-.01.02-.04c-.06-.14-.16-.16-.26-.19q-.12-.01-.19-.1l-.04-.01-.01.04c.05.1.14.11.22.13q.14.02.22.15m-.06-.4q.03.03.05 0v-.04q-.07-.09-.16-.11-.06-.02-.11-.06l-.11-.14-.12-.16a.03.03 0 0 0-.05 0v.05l.11.14q.06.09.13.15.05.06.12.08.08.02.14.1m.5.1q.02.03.05.02l.02-.04q-.07-.13-.22-.17c-.09-.04-.17-.07-.2-.18l-.03-.03a.03.03 0 0 0-.03.04q.06.19.24.23.12.04.18.13m-.24-.38q0 .03.04.02.03 0 .02-.03v-.08q0-.03-.02-.04-.03 0-.04.02zm-3.18-1.4-.02.04q0 .03.04.02l.05-.02.04-.03a.03.03 0 0 0 0-.05h-.05l-.02.02zm.08.05-.01.04q0 .03.04.02l.05-.02.04-.03a.03.03 0 0 0 0-.05.03.03 0 0 0-.05 0l-.03.02zm.06.1q-.02 0 0 .04.01.04.04.01l.05-.04.03-.06q.01-.02-.01-.04-.03 0-.05.02l-.02.04zm.05.06-.02.04q.01.03.04.02l.09-.05.06-.06v-.05l-.05.01-.05.05zm.1.06q-.03.01-.02.04 0 .04.04.03l.09-.04.07-.05q.03-.02 0-.04-.04-.03-.04 0zm.11.1-.02.04q0 .03.04.02a.4.4 0 0 0 .18-.1q.02-.03 0-.05t-.04 0l-.07.06zm.87.48q.01.02.04.01l.01-.04-.1-.16-.13-.12q-.01-.02-.04 0t0 .05q.07.05.12.11zm-.16 0q.02.02.05.01.02-.01.01-.04l-.15-.2-.04.01a.03.03 0 0 0 0 .05zm-.36-1.07v-.05a.03.03 0 0 0-.05.01l-.05.06-.08.05v.04q0 .03.04.02a.4.4 0 0 0 .14-.13m.13.06v-.04q-.01-.02-.05 0l-.16.12q-.03.02 0 .05t.04 0zm.09.1a.03.03 0 0 0-.05-.04l-.05.04-.07.02a.03.03 0 1 0 .01.06q.06 0 .1-.03zm.08.05a.03.03 0 0 0 0-.05.03.03 0 0 0-.05 0l-.12.12v.05h.05zm.13.04a.03.03 0 0 0 0-.05.03.03 0 0 0-.05 0l-.12.11a.03.03 0 0 0-.01.05q.01.02.04 0zm.17.04a.03.03 0 0 0-.01-.05.03.03 0 0 0-.05 0l-.12.14a.03.03 0 0 0 0 .05q0 .02.04 0zm.12.07q.01-.04-.01-.04-.04-.01-.04.01l-.04.06-.06.06v.04q0 .02.04 0zm.19.04v-.04h-.04l-.16.15a.03.03 0 0 0 .01.05h.04zm.17.04a.03.03 0 0 0 0-.05.03.03 0 0 0-.05 0l-.06.08-.05.09.02.04.04-.02zm.15.03v-.04q0-.03-.04 0l-.08.07-.06.1q-.01.03.01.04t.05-.01l.05-.08zm.17.05a.03.03 0 0 0 0-.05.03.03 0 0 0-.05 0l-.07.11-.04.11q0 .04.02.04.04 0 .04-.02zm.25-.07a.03.03 0 0 0 0-.05.03.03 0 0 0-.05 0q-.08.09-.12.18l-.07.18q0 .03.03.04.03 0 .04-.03 0-.08.05-.16zm-.03.16-.04-.02a.03.03 0 0 0-.02.05l.02.1v.1q0 .03.04.04l.03-.01.16-.18.01-.04H471l-.1.07-.03.04v-.04zm.18-.05q0 .03.03.03.05 0 .03-.04v-.07q0-.03-.04-.03-.05 0-.03.04zm.17-.1q.01.02.04 0l.01-.04-.05-.05-.06-.04-.04.02q0 .03.02.04l.04.03zm-.06-.22q-.02 0-.04.03-.01.04.03.03l.15.07q.05.04.07.1.02.02.05.01.08-.05.14-.03.06 0 .1.07h.05a.03.03 0 0 0 0-.05.3.3 0 0 0-.14-.09q-.08 0-.15.03l-.09-.1zm.07-.08q-.04 0-.04.03t.03.03l.12.04.07.05q.02.03.05 0v-.04l-.1-.07zm.2-.04-.04.01q0 .03.02.05l.17.13h.05v-.04zm.13-.08-.04.01a.03.03 0 0 0 0 .05l.18.16h.04a.03.03 0 0 0 0-.05zm.16-.07-.04.01v.05l.17.15h.05a.03.03 0 0 0 0-.05zm.18-.09-.05.01q0 .03.02.05l.07.05.05.08q.02.02.05 0 .02 0 .01-.04l-.06-.08zm.13-.05h-.04a.03.03 0 0 0 0 .05l.06.05.04.06q.02.02.05.01.04-.02 0-.05zm.74-.38q-.02 0-.03.03 0 .04.03.03.07 0 .1.03.06.02.08.05h.05a.03.03 0 0 0 0-.05l-.1-.06zm0-.12a.03.03 0 0 0 .01.06h.12l.13.08h.05q.02-.02 0-.05l-.16-.08zm.04-.15-.03.03q0 .03.03.03l.15.03.12.06h.05v-.05l-.15-.08zm.06-.13a.03.03 0 0 0-.03.04q0 .02.04.03h.12q.06.01.11.06h.05a.03.03 0 0 0 0-.05l-.15-.07zm-.14-.17a.03.03 0 0 0 0 .05l.05-.01.07-.04h.1q.03 0 .04-.03a.03.03 0 0 0-.03-.04h-.13zm-.03-.12v.04q.02.02.05 0l.07-.03h.08q.03 0 .04-.03l-.03-.03h-.1zm-.09-.07q0 .03.02.05l.04-.02.04-.03.06-.01q.02 0 .03-.03a.03.03 0 0 0-.03-.04l-.09.02zm-.09-.14q0 .03.03.03t.03-.02.03-.02l.1-.01.02-.03q0-.03-.03-.03h-.11q-.06.03-.07.08m-.1.04.04.02q.03-.01.02-.04-.03-.12.01-.15.06-.03.18 0 .03 0 .04-.03 0-.04-.03-.04-.15-.03-.22.02-.09.05-.04.22m.07-.33v.04h.05q.02-.04.11-.01.03 0 .05-.02 0-.03-.03-.04-.13-.05-.18.03m0-.12a.03.03 0 0 0 0 .05l.05-.01.04-.03h.07q.04 0 .04-.03 0-.04-.03-.04h-.1zm.03-.1q-.01.03.02.04.03 0 .04-.02 0-.02.02-.02h.06q.02 0 .03-.03l-.03-.03h-.08zm-.78.1q0 .03.03.04.02 0 .03-.03l.02-.04.02-.01q.03 0 .02-.04 0-.05-.04-.02l-.05.04zm-.15-.25.01.04q.03.01.05-.01v-.02l.02-.01.06-.05q.03 0 .02-.04l-.04-.02a.2.2 0 0 0-.1.09zm.05.12q0 .03.02.05l.04-.01v-.02h.02l.06-.04q.03 0 .03-.04l-.04-.02-.1.05-.01.01zm-.2-.33q-.01.03.01.04.04.01.04-.01l.04-.06.05-.03q.03 0 .03-.04a.03.03 0 0 0-.05-.02l-.07.05zm.08.1a.03.03 0 1 0 .05.03l.04-.05.03-.02q.03 0 .03-.04-.01-.05-.04-.02l-.07.04zm.57-.27q-.04 0-.03-.05-.01-.05.04-.05l.04.01q.04.03.03.07l-.03.03zm.57.25v.04q.02.03.04 0l.16-.18q.03-.1-.04-.16h-.05v.05q.05.03.03.09zm.43-.2h.04v-.05c-.14-.08-.1-.15-.07-.23a.4.4 0 0 0 .04-.19v-.02q0-.06-.07-.11-.09-.07-.16-.05h-.04a.03.03 0 0 0-.03.04q0 .03.04.03l.03-.01q.08 0 .12.04.05.05.05.08a.3.3 0 0 1-.04.16c-.05.1-.09.2.09.31m-.37-.75-.02.05q.01.03.04.02l.19-.03q.07 0 .16.06.03 0 .04-.02v-.04a.4.4 0 0 0-.2-.06l-.2.02m-.8-.25q0 .04.02.04t.04-.02l.02-.02.05-.03.02-.04-.04-.02-.07.04zm-.1-.1a.03.03 0 1 0 .07.03q0-.03.03-.04l.04-.03q.03-.01.01-.04l-.04-.02-.05.04zm.44.6q0 .03.02.04.03 0 .04-.02l.01-.03.05-.03.02-.04q-.01-.03-.04-.02l-.07.04zm-.05-.19q0 .03.02.04.04 0 .04-.02l.02-.03.05-.02q.03 0 .03-.04l-.04-.02-.08.03zm-.12-.1.01.04h.05a.2.2 0 0 1 .1-.08q.02 0 .01-.04 0-.03-.04-.02l-.07.04zm-.12-.1.01.04h.05a.3.3 0 0 1 .14-.1q.03-.02.02-.05l-.04-.02a.3.3 0 0 0-.18.13m.62-.1a.03.03 0 0 0 0 .05q.01.03.04.01l.1-.03.11.01q.03 0 .04-.02 0-.04-.02-.04l-.14-.02zm-.13-.16q-.02 0-.01.04 0 .04.04.01l.11-.02.14.03.04-.02q0-.04-.02-.04l-.16-.03q-.08 0-.14.03m-.15-.11-.02.04q0 .03.04.02l.15-.02.17.02.04-.03q0-.02-.03-.04l-.18-.02zm-.08-.12a.03.03 0 0 0 0 .05h.04l.11-.07h.15q.04 0 .04-.03t-.03-.04h-.12v-.04c-.12-.12-.2-.08-.27-.04l-.04.01a.03.03 0 0 0-.02.05q0 .02.04.01l.04-.01c.06-.03.12-.06.2.03h-.01zm-.27-.27a.03.03 0 0 0 0 .05h.05l.08-.06.13-.02q.03 0 .03-.03 0-.04-.03-.04-.08 0-.15.03zm-.14-.15.01.05q.03 0 .05-.02l.05-.06.12-.03.03-.03a.03.03 0 0 0-.04-.03q-.08 0-.14.03a.2.2 0 0 0-.08.1m-.19-.17q0 .03.02.05l.04-.02q.01-.03.07-.04h.13q.04 0 .04-.03a.03.03 0 0 0-.03-.04l-.16.01q-.07.02-.1.07m-.28.42q0 .03.02.05t.04-.02l.01-.01.01-.01q.03-.03.08-.02.03 0 .04-.03a.03.03 0 0 0-.03-.04q-.08-.01-.13.04l-.02.02zm-.06-.12v.04q.03.02.05 0l.04-.03h.07a.03.03 0 1 0 0-.07l-.1.01zm-.05-.07q-.01.02.01.04t.04-.02l.04-.03.07-.02a.03.03 0 0 0 0-.06l-.1.03zm-.09-.08q0 .03.03.04.02 0 .03-.03l.04-.05.06-.01q.03 0 .04-.03a.03.03 0 0 0-.04-.04l-.1.03a.1.1 0 0 0-.06.09m.2-.16q0 .03.02.05.03 0 .04-.02l.03-.02.04-.01q.03 0 .03-.04a.03.03 0 0 0-.04-.03l-.07.02zm-.14-.06.01.04.05-.01.05-.07q.03-.03.1-.01.03 0 .04-.03 0-.04-.03-.04-.09 0-.14.03zm-.25-.4h-.04a.03.03 0 0 0 0 .05q.04.07.12.1.07.01.17-.05a.03.03 0 0 0 .01-.05.03.03 0 0 0-.05 0q-.06.04-.12.03-.05 0-.09-.07m-.2-.11q.02 0 .03-.03l-.03-.03h-.1l-.07.07.01.05.05-.01q.01-.04.04-.05zm3.2 5v-.04a.03.03 0 0 0-.05 0q-.04.06-.04.11 0 .07.03.13.02.02.05 0 .04-.01 0-.04l-.02-.08q0-.04.03-.08m.1.27H474v.04q.05.09.11.1.06.04.13.04h.07q.09 0 .14.03h.04q.02-.02 0-.05-.07-.06-.19-.05h-.05q-.06 0-.11-.02a.2.2 0 0 1-.1-.09m-2.13-.74q.09-.08.14-.2.04.05 0 .13-.05.09-.14.07"/><path fill="#fff" fill-rule="evenodd" d="M475.88 192.34h-3.61v-4.23h3.61zm-5.45 0h-3.82v-4.23h3.82zm-3.83-10.2h3.83v4.13h-3.82zm5.67 0h3.61v4.13h-3.61z"/><path fill="#d00" d="M471.98 192.34v-4.3l-.74-.73-.73.73v4.3zm-5.37-4.4v-1.46h3.8l.74.74-.72.72zm3.9-5.8h1.47v4.25l-.74.74-.73-.73zm5.37 4.34v1.47h-3.82l-.73-.73.75-.74z"/><path fill="#fff" d="M471.27 192.34v-5l-.04-.03-.03.03v5zm.08-5.1h4.52v-.06h-4.5l-.04.04zm-.08-.15v-4.94h-.06v4.95l.03.03zm-.17.09h-4.5v.06h4.52l.02-.02z"/><path fill="#ffce00" fill-rule="evenodd" d="M457.11 180.19v-2.05a9.43 9.43 0 0 1 8.94-8.97zm9.36-5.52V182h-6.08z"/><path fill="#d00" fill-rule="evenodd" d="m466.48 174.47-6.25 7.52h-3.11v-1.4l9.28-11.43h.08z"/><path d="M464.29 176.84c-.26-.05-.41-.03-.72.2.2-.24.17-.2.4-.4-.17-.1-.48-.1-.77.11.14-.17.2-.2.37-.36q-.24-.15-.6 0c.23-.28.5-.4.8-.53-.03-.11-.1-.13-.26-.18.15-.16.08-.31.1-.45-.14-.02-.17.06-.25.06-.1 0-.2-.04-.27.04l-.1-.2-.1.22c-.12.35-.28.65-.46.81.1-.3.18-.5.05-.82-.12.25-.19.46-.36.6.16-.33.24-.62.11-.96-.07.24-.28.56-.47.78.15-.29.31-.7.25-1-.42.58-.97 1.18-1.46 1.8-.14.14-.31.32-.3.56.02.1.02.24.13.33l.15.08.17.03q.16 0 .3-.17.11-.16.27-.17h.04q.03 0 .04.03l.02.01q.04.05.03.1l-.05.15-.09-.04-.17-.06v.19q0 .07-.09.16c-.12.16-.18.35 0 .53.14.13.28.08.4-.01.08-.08.15-.2.27-.2h.13c0-.14-.03-.19-.11-.25.06-.06.14-.13.27-.07.1.05.02.27-.01.33-.1.2-.23.42-.01.66q.17.17.35.16c.29 0 .58-.39.71-.54z"/><path fill="#fff" fill-rule="evenodd" d="M463.95 177.05c-.34.41-.67.85-1.03 1.24-.1.12-.24.3-.39.4-.15.12-.3.16-.46-.02-.27-.31.17-.58.09-.85-.06-.15-.13-.16-.3-.16-.12 0-.29.08-.29.21q.12 0 .14.11-.17.02-.27.14c-.14.11-.24.22-.36.12-.06-.05-.07-.17-.02-.24.07-.13.2-.23.2-.36l.17.08c.11-.11.22-.42.03-.54-.18-.12-.39 0-.52.17-.24.29-.57 0-.58-.2-.02-.25.22-.42.35-.59.26-.35 1.08-1.22 1.25-1.6.01.31-.17.61-.38.92q-.16.23-.1.31c.13.12.68-.74.74-.84 0 .39-.36.71-.36 1.12.24-.19.4-.42.59-.7-.04.21-.2.53-.2.77.25-.16.6-.54.8-1.1.07.09.06.2.14.2.07-.01-.15-.27.36-.28-.05.34-.16.3-.3.43.09-.02.4-.07.4.05-.4.15-.92.54-1.07 1.07.22-.24.42-.4.79-.44-.16.18-.52.49-.52.79.35-.2.46-.5.97-.56-.33.29-.7.76-.7 1.05q.35-.42.83-.7"/><path d="M461.63 179.98c-.27-.04-.41-.01-.71.23.19-.25.16-.21.4-.42a.8.8 0 0 0-.78.14c.14-.17.2-.21.36-.37q-.25-.12-.6.02c.23-.27.5-.4.8-.54-.04-.1-.11-.12-.27-.17.15-.16.08-.3.1-.44-.15 0-.18.07-.26.07s-.19-.03-.26.05q-.07-.1-.1-.19l-.1.22a2 2 0 0 1-.45.8c.09-.3.17-.5.03-.8-.11.25-.18.46-.35.6.16-.33.23-.61.1-.94-.07.24-.27.55-.46.77.15-.28.3-.68.24-.98-.41.58-.95 1.2-1.43 1.8-.14.15-.31.33-.29.56.01.11.02.23.13.32l.15.08q.08.02.18.02.15-.02.29-.18.12-.16.26-.17l.1.02.01.02q.03.03.03.1t-.04.14l-.1-.04-.17-.05v.18q-.01.07-.08.17c-.12.15-.18.34.01.5.14.13.28.08.39-.02.09-.08.15-.2.27-.2l.13-.01c0-.13-.04-.18-.12-.23.07-.06.15-.14.28-.08.09.04.02.26-.01.32-.1.2-.22.41 0 .65q.16.15.36.14c.29-.02.57-.4.7-.56z"/><path fill="#fff" fill-rule="evenodd" d="M461.29 180.2q-.48.64-1 1.24c-.11.12-.24.3-.39.41s-.3.16-.46 0c-.28-.3.16-.58.07-.83-.05-.15-.13-.16-.3-.15-.12 0-.28.08-.28.21q.12 0 .13.1-.15.03-.26.15c-.14.11-.24.22-.35.13-.07-.05-.08-.16-.04-.23.08-.13.2-.23.2-.36l.17.07c.11-.11.22-.42.02-.53-.18-.1-.39.02-.52.18-.23.3-.56.02-.58-.17-.03-.23.22-.42.34-.58.25-.35 1.06-1.23 1.23-1.6.01.3-.16.6-.37.9q-.16.24-.1.31c.14.11.68-.74.74-.85 0 .38-.35.71-.35 1.1.24-.18.39-.41.58-.7-.04.21-.18.53-.18.77.24-.17.58-.55.77-1.11.07.09.07.2.14.19s-.15-.25.36-.28c-.04.33-.16.29-.29.43.09-.03.39-.09.4.04-.4.15-.91.55-1.05 1.07.22-.24.41-.4.78-.46-.16.18-.51.5-.5.8.34-.21.44-.5.95-.59-.32.3-.69.77-.67 1.05q.33-.41.81-.71"/><path d="m466.48 173.64-.25.17.25-.29v-.18a.8.8 0 0 0-.62.19c.14-.18.2-.22.37-.38q-.25-.15-.6.02c.23-.28.5-.41.8-.55-.03-.12-.1-.13-.26-.18.15-.17.08-.31.1-.45-.14-.01-.17.06-.25.06-.1 0-.2-.03-.27.05l-.1-.2-.1.23a2 2 0 0 1-.46.82c.1-.3.18-.5.05-.82-.12.26-.19.47-.36.62.16-.34.24-.63.11-.97-.07.24-.28.56-.47.79.15-.29.31-.7.25-1-.42.59-.97 1.2-1.46 1.83-.14.15-.31.34-.3.58.02.1.02.23.13.32l.14.08a.4.4 0 0 0 .18.02q.16 0 .3-.18.11-.16.27-.17h.04l.04.02.02.02q.04.04.03.1 0 .07-.05.15l-.09-.04-.17-.05v.18q0 .07-.09.17c-.12.16-.18.35 0 .52.14.13.28.08.4-.02.08-.08.15-.2.27-.21h.13c0-.14-.04-.18-.11-.24.06-.07.14-.14.27-.08.1.04.02.27-.01.33-.1.2-.23.42-.01.66q.17.16.35.15c.29-.02.58-.4.71-.56l.82-1z"/><path fill="#fff" fill-rule="evenodd" d="M466.48 173.97q-.44.57-.9 1.11c-.1.12-.24.3-.39.41-.15.12-.31.16-.46 0-.28-.31.17-.59.08-.86-.05-.15-.12-.16-.29-.15-.12.01-.3.08-.3.22q.13 0 .14.1-.15.03-.27.15c-.13.12-.24.23-.35.13-.06-.05-.07-.16-.03-.24.08-.13.2-.23.2-.37.1.03.13.06.17.08.12-.12.23-.43.03-.54-.18-.1-.38.01-.52.18-.23.3-.56.01-.58-.18-.02-.24.23-.43.35-.6.26-.36 1.09-1.25 1.26-1.63 0 .31-.17.61-.39.93-.1.14-.15.27-.1.31.14.12.69-.76.75-.86 0 .39-.36.72-.36 1.12.24-.19.4-.42.58-.71-.03.21-.18.54-.18.78.24-.17.59-.56.78-1.13.07.1.07.2.14.2.08-.01-.15-.26.36-.29-.05.34-.16.3-.29.44.08-.02.39-.08.39.04-.4.16-.91.56-1.06 1.1.22-.25.42-.4.79-.47-.17.19-.53.51-.53.81.36-.2.46-.5.97-.59-.32.3-.7.79-.69 1.07q.3-.36.7-.64z"/></g></svg>